<?xml version="1.0" encoding="UTF-8"?>
<svg version="1.1" xmlns="http://www.w3.org/2000/svg" width="148" height="148">
<path d="M0 0 C48.84 0 97.68 0 148 0 C148 48.84 148 97.68 148 148 C99.16 148 50.32 148 0 148 C0 99.16 0 50.32 0 0 Z " fill="#EDE1D8" transform="translate(0,0)"/>
<path d="M0 0 C24.42 0 48.84 0 74 0 C74 11.55 74 23.1 74 35 C70.9475 35.12375 67.895 35.2475 64.75 35.375 C47.57537565 35.81355272 47.57537565 35.81355272 33 44 C22.80808585 56.13323113 21.97797853 74.65511567 22.79150391 89.81689453 C23.50445175 97.28197609 24.94891042 106.25420469 30 112 C43.14632598 111.30808811 53.77264713 98.3569805 62.390625 89.5546875 C62.93412598 89.00119629 63.47762695 88.44770508 64.03759766 87.87744141 C65.0767074 86.81212219 66.1080027 85.73911067 67.13037109 84.65771484 C68.36514827 83.38270576 69.67758954 82.18387222 71 81 C71.99 81 72.98 81 74 81 C74 103.11 74 125.22 74 148 C49.58 148 25.16 148 0 148 C0 99.16 0 50.32 0 0 Z " fill="#F5EEEB" transform="translate(0,0)"/>
<path d="M0 0 C1.33703299 0.01927727 2.67406922 0.03833145 4.0111084 0.05717468 C6.80158981 0.09794793 9.5919587 0.14313209 12.38232422 0.19116211 C15.93927546 0.25178907 19.49625999 0.29871817 23.05345917 0.34199238 C25.81097027 0.37752743 28.56829366 0.42173622 31.32563782 0.46834373 C33.26856551 0.4993 35.21161917 0.52200052 37.15466309 0.54450989 C50.87737823 0.80978287 50.87737823 0.80978287 57.15625 3.94921875 C57.94109956 12.05933084 55.83275205 16.39987295 51.15625 22.94921875 C50.41375 24.00109375 49.67125 25.05296875 48.90625 26.13671875 C39.15361661 36.1110029 27.12600359 40.77244144 13.578125 43.078125 C4.43358708 45.40601536 -0.76052347 50.44274086 -7.15625 57.19921875 C-15.31224469 65.58652758 -23.0635956 73.04249087 -33.84375 77.94921875 C-36.53125 77.88671875 -36.53125 77.88671875 -38.84375 76.94921875 C-45.71091402 69.61949964 -46.40803109 56.04481587 -46.24536133 46.45947266 C-45.69068181 32.53367905 -44.20557115 16.46168106 -33.46875 6.38671875 C-23.62555322 -0.96863709 -11.70707522 -0.1916929 0 0 Z " fill="#F1746B" transform="translate(67.84375,35.05078125)"/>
<path d="M0 0 C5.69253284 -0.04967973 11.38493762 -0.08585156 17.07763672 -0.10986328 C19.01157837 -0.11988036 20.94550504 -0.13349784 22.87939453 -0.15087891 C25.66963414 -0.17531686 28.45967236 -0.18652628 31.25 -0.1953125 C32.533302 -0.21079636 32.533302 -0.21079636 33.8425293 -0.22659302 C39.84102493 -0.22769774 45.53964032 0.26982016 51 3 C51.78484956 11.11011209 49.67650205 15.4506542 45 22 C44.2575 23.051875 43.515 24.10375 42.75 25.1875 C32.20380671 35.9733795 18.64120326 40.67929381 4 43 C2.68 43 1.36 43 0 43 C-0.09765625 36.84765625 -0.09765625 36.84765625 0 35 C1.74947105 33.25052895 4.37112791 33.82967514 6.75 33.75 C17.93452567 32.95373037 30.61044321 28.34618876 38.7265625 20.28515625 C39.88457383 18.91042213 40.95524409 17.46265827 42 16 C41.29359375 16.59425781 40.5871875 17.18851563 39.859375 17.80078125 C33.12377664 22.98130294 24.74605871 27.6835597 16 27 C8.86307333 24.96087809 3.97907629 17.96861444 0 12 C-0.1953125 9.08203125 -0.1953125 9.08203125 -0.125 5.8125 C-0.10695313 4.72582031 -0.08890625 3.63914063 -0.0703125 2.51953125 C-0.04710938 1.68808594 -0.02390625 0.85664062 0 0 Z " fill="#ED5246" transform="translate(74,36)"/>
<path d="M0 0 C22.11 0 44.22 0 67 0 C67 22.44 67 44.88 67 68 C66.67 68 66.34 68 66 68 C65.97421875 67.41734375 65.9484375 66.8346875 65.921875 66.234375 C64.81690855 50.26258724 57.52128228 35.84160006 47 24 C46.44570312 23.36320312 45.89140625 22.72640625 45.3203125 22.0703125 C33.39977348 9.23719633 16.85630727 3.46677667 0 1 C0 0.67 0 0.34 0 0 Z " fill="#FEFEFE" transform="translate(81,0)"/>
<path d="M0 0 C0.33 0 0.66 0 1 0 C1 21.45 1 42.9 1 65 C-21.11 65 -43.22 65 -66 65 C-66 64.67 -66 64.34 -66 64 C-65.04222656 63.87625 -64.08445312 63.7525 -63.09765625 63.625 C-47.84782703 61.37372412 -34.37715643 55.58140069 -23 45 C-22.36964844 44.44828125 -21.73929688 43.8965625 -21.08984375 43.328125 C-8.9195449 32.09400298 -2.72815985 15.96212827 0 0 Z " fill="#FEFEFE" transform="translate(147,83)"/>
<path d="M0 0 C22.44 0 44.88 0 68 0 C68 0.33 68 0.66 68 1 C67.22398438 1.08636719 66.44796875 1.17273438 65.6484375 1.26171875 C45.18421234 3.92353324 29.16701669 13.02162465 15.8125 28.6875 C6.92883827 40.25064674 1.89441893 53.50424486 1 68 C0.67 68 0.34 68 0 68 C0 45.56 0 23.12 0 0 Z " fill="#FEFEFE" transform="translate(0,0)"/>
<path d="M0 0 C0.33 0 0.66 0 1 0 C1.08636719 0.70382813 1.17273438 1.40765625 1.26171875 2.1328125 C3.36819721 16.93613819 8.56963372 29.75169101 18.4375 41.0625 C21 44 21 44 21 46 C21.8353125 46.37898438 21.8353125 46.37898438 22.6875 46.765625 C25.35597231 48.19001225 27.60086327 49.90780572 30 51.75 C40.53835166 59.48186653 51.96957185 64.58364911 65 66 C65 66.33 65 66.66 65 67 C43.55 67 22.1 67 0 67 C0 44.89 0 22.78 0 0 Z " fill="#FEFEFE" transform="translate(0,81)"/>
<path d="M0 0 C3.18918683 1.38267577 5.07347641 2.9173528 7.3125 5.5625 C7.91320312 6.26890625 8.51390625 6.9753125 9.1328125 7.703125 C11.60938036 10.74961433 13.98565202 13.86609401 16.32421875 17.01953125 C19.10209819 20.30247968 21.70045791 22.34855423 26 23 C33.21215331 23.57031855 39.8605081 20.33894558 45.54296875 16.10546875 C47.43471009 14.4614953 49.24647024 12.78963184 51 11 C51 14.69596778 49.78326748 16.30255837 47.375 19.0234375 C39.18573674 25.8388441 27.21486265 31.06890752 16.625 31.3125 C10.50074689 31.74349171 6.51001971 32.76213665 2 37 C-0.02319567 39.37725491 -1.9189496 41.82700719 -3.8125 44.30859375 C-10.20961806 52.17933364 -18.3691493 59.4479921 -28 63 C-31.32421875 63.1484375 -31.32421875 63.1484375 -34 63 C-34.66 61.68 -35.32 60.36 -36 59 C-35.39414062 58.93683594 -34.78828125 58.87367187 -34.1640625 58.80859375 C-21.89821123 57.01589241 -12.70472405 48.31864621 -5 39 C3.0153936 28.49777079 3.0153936 28.49777079 5 16 C4.17417773 12.6055487 3.11407849 9.3096283 2 6 C1.4121875 4.205625 1.4121875 4.205625 0.8125 2.375 C0.544375 1.59125 0.27625 0.8075 0 0 Z " fill="#F58F8D" transform="translate(65,39)"/>
<path d="M0 0 C2.95209465 2.95209465 5.47629228 5.49701724 8 8.6875 C10.47390788 11.56224359 12.14876499 13.28349116 16 14 C25.11304557 14.45188656 33.86917182 9.81835665 40.75 4.125 C41.4925 3.42375 42.235 2.7225 43 2 C41.62222116 7.68333772 37.63857962 10.82233733 33 14 C24.45482343 18.71263789 16.54201951 21.92783207 6.75 22.5625 C3.40875 22.7790625 3.40875 22.7790625 0 23 C0 15.41 0 7.82 0 0 Z " fill="#F37571" transform="translate(74,48)"/>
</svg>
