<?xml version="1.0" encoding="UTF-8"?>
<svg version="1.1" xmlns="http://www.w3.org/2000/svg" width="1205" height="1205">
<path d="M0 0 C397.65 0 795.3 0 1205 0 C1205 397.65 1205 795.3 1205 1205 C807.35 1205 409.7 1205 0 1205 C0 807.35 0 409.7 0 0 Z " fill="#FEFEFE" transform="translate(0,0)"/>
<path d="M0 0 C16.25046914 10.60149654 20.17880686 41.37850651 23.90209961 58.87939453 C24.20672904 60.33602036 24.51022145 61.7928845 24.8125 63.25 C24.95366241 63.92464294 25.09482483 64.59928589 25.24026489 65.29437256 C26.25149661 70.18121036 27.15779811 75.08131794 28 80 C28.13946045 80.80474762 28.2789209 81.60949524 28.42260742 82.43862915 C30.85123778 96.86993916 31.47045529 111.05475858 31.39111328 125.67504883 C31.37509298 129.1672315 31.39103195 132.65824358 31.41015625 136.15039062 C31.44976517 179.80152032 23.0439173 222.79107118 6 263 C5.57348145 264.00724121 5.14696289 265.01448242 4.70751953 266.05224609 C-5.15531129 289.02592316 -17.23175864 310.81546313 -32 331 C-32.46470703 331.63969727 -32.92941406 332.27939453 -33.40820312 332.93847656 C-44.80288326 348.47295056 -58.40698735 360.7822908 -74 372 C-75.18021729 372.85078125 -75.18021729 372.85078125 -76.38427734 373.71875 C-86.2031988 380.76117835 -96.20186053 387.49042375 -106.35644531 394.03735352 C-122.9895361 404.77888302 -139.18504095 416.08890753 -155 428 C-155.73057617 428.54897949 -156.46115234 429.09795898 -157.21386719 429.66357422 C-167.67101912 437.53799194 -177.92575073 445.64133992 -188 454 C-188.61504395 454.50917969 -189.23008789 455.01835938 -189.86376953 455.54296875 C-205.98785856 468.82473815 -205.98785856 468.82473815 -219 485 C-232.61434561 478.94917973 -240.00317029 462.6629798 -245.09619141 449.50488281 C-254.83849309 422.50433843 -257.39249257 393.90128139 -245.3125 367.25 C-237.55143385 351.13421423 -224.77724416 338.72140234 -212.3125 326.1875 C-211.61189453 325.48214111 -210.91128906 324.77678223 -210.18945312 324.05004883 C-206.1791479 320.05247623 -202.06134844 316.24661897 -197.7746582 312.54760742 C-192.02435779 307.53300372 -186.83175712 301.93787493 -181.87109375 296.15234375 C-179.66920171 293.61947838 -177.39804174 291.15667478 -175.125 288.6875 C-152.55706016 263.85261568 -132.84186514 235.59379961 -118.8125 205.0625 C-109.14159146 184.07492761 -109.14159146 184.07492761 -100 179 C-96.88458133 178.37092508 -94.10242536 178.27266791 -91 179 C-88.31133819 181.68866181 -88.71263358 183.08557522 -88.7109375 186.83984375 C-88.82189054 193.68414186 -89.97652554 199.93989736 -91.625 206.5625 C-91.86089844 207.57634766 -92.09679687 208.59019531 -92.33984375 209.63476562 C-96.89120892 228.64546783 -103.26158633 247.22085016 -109.25 265.8125 C-110.3312095 269.17231747 -111.4118386 272.53231822 -112.4911499 275.89274597 C-113.15554986 277.9610842 -113.8210509 280.02906917 -114.487854 282.09663391 C-116.07778418 287.04354169 -117.60998882 291.99309642 -119 297 C-105.83199194 290.39096174 -91.49210434 280.78658172 -85 267 C-84.42678762 263.90162706 -84.52522937 260.95800413 -84.6875 257.8203125 C-84.70643311 256.96750702 -84.72536621 256.11470154 -84.74487305 255.23605347 C-84.82580086 251.62407181 -84.9664497 248.01504159 -85.10253906 244.40478516 C-85.79282646 224.33195413 -85.79282646 224.33195413 -80 217 C-77.61328125 214.4921875 -77.61328125 214.4921875 -75.3125 212.875 C-74.54550781 212.31554687 -73.77851562 211.75609375 -72.98828125 211.1796875 C-71 210 -71 210 -69 210 C-68.98018066 210.65484375 -68.96036133 211.3096875 -68.93994141 211.984375 C-68.84389478 214.98994448 -68.73454216 217.99489331 -68.625 221 C-68.57859375 222.54494141 -68.57859375 222.54494141 -68.53125 224.12109375 C-68.30589273 230.01794224 -67.8440836 235.37488168 -66 241 C-65.34 241.33 -64.68 241.66 -64 242 C-60.63295344 236.68724211 -57.30043936 231.35439738 -54 226 C-53.62713867 225.39752441 -53.25427734 224.79504883 -52.87011719 224.17431641 C-30.79854117 188.19076966 -19.16745927 141.22396709 -13 100 C-12.83628906 98.91170898 -12.67257812 97.82341797 -12.50390625 96.70214844 C-9.5053052 76.13942761 -9.62865535 56.53536986 -11.2746582 35.86303711 C-11.81273911 28.97132861 -12.26521533 22.10050332 -12.375 15.1875 C-12.41367187 14.05985229 -12.41367187 14.05985229 -12.453125 12.90942383 C-12.47196266 7.80618308 -11.22692458 4.91669471 -8 1 C-5.14675563 -0.42662219 -3.16545451 -0.31033868 0 0 Z " fill="#D01D23" transform="translate(914,343)"/>
<path d="M0 0 C3.0565575 2.43302723 5.56982492 5.24994174 6.51513672 9.09570312 C6.66657894 11.44541571 6.62338661 13.7111439 6.5 16.0625 C6.47808594 16.93245605 6.45617187 17.80241211 6.43359375 18.69873047 C6.2255065 25.03295163 5.63308163 31.32165917 5 37.625 C1.81077236 69.79015152 5.76157815 101.61749112 13 133 C13.20818359 133.91765137 13.41636719 134.83530273 13.63085938 135.78076172 C22.04776524 172.20006592 34.98678259 212.84109314 59 242 C61.35658397 238.46512404 61.37577643 236.56765697 61.6328125 232.36328125 C61.75849609 230.41518555 61.75849609 230.41518555 61.88671875 228.42773438 C61.96633926 227.0560008 62.04576384 225.68425583 62.125 224.3125 C62.21141912 222.92898496 62.29864928 221.54552034 62.38671875 220.16210938 C62.5991412 216.77515148 62.8032242 213.3878971 63 210 C70.23677687 213.57359408 74.56345033 216.60898878 78.05859375 224.015625 C80.37197983 231.34934684 79.30609804 239.25817289 78.2421875 246.75390625 C77.16686538 256.72665175 76.74234451 265.74355267 83 274 C90.3872685 282.67939299 98.91549915 290.00967565 109.15917969 295.09375 C110.23845734 295.63032227 110.23845734 295.63032227 111.33953857 296.17773438 C111.88749084 296.44908203 112.43544312 296.72042969 113 297 C112.66379639 295.94651367 112.32759277 294.89302734 111.98120117 293.80761719 C105.88356619 274.68916699 99.81788912 255.56154671 93.9375 236.375 C93.7145224 235.65066772 93.4915448 234.92633545 93.2618103 234.18005371 C79.22701639 188.54596722 79.22701639 188.54596722 84 179 C88.48467352 178.64122612 91.98140074 178.53144434 96.125 180.4375 C102.93026874 186.50306562 107.15288725 193.68707532 110.8125 201.9375 C126.29690892 235.4575248 148.11545934 266.24218237 173.3671875 293.15625 C175.39131574 295.34254875 177.3490358 297.55281175 179.29296875 299.80859375 C183.15972596 304.24645738 187.2654487 308.41298003 191.4375 312.5625 C192.14970703 313.27857422 192.86191406 313.99464844 193.59570312 314.73242188 C197.63310607 318.76249076 201.77307228 322.60035972 206.09106445 326.3269043 C226.50867829 344.22201974 245.20264597 367.80740529 247.20727539 395.90527344 C247.59927531 408.53524478 247.53488009 420.79774488 244 433 C243.77425293 433.78793945 243.54850586 434.57587891 243.31591797 435.38769531 C238.37573392 452.27541667 231.12435278 475.00015649 214.67578125 484.31640625 C214.12277344 484.54199219 213.56976562 484.76757812 213 485 C212.29875 484.154375 211.5975 483.30875 210.875 482.4375 C203.18395315 473.21586946 195.37165271 464.95291638 185.98046875 457.4140625 C183.36983845 455.2995546 180.80713037 453.1445618 178.25634766 450.95922852 C171.97118736 445.57799505 165.53327059 440.43438082 158.92578125 435.453125 C156.75881022 433.8180069 154.59846438 432.1742973 152.4375 430.53125 C150.77120579 429.27034097 149.10453908 428.00992407 147.4375 426.75 C146.33426392 425.91130371 146.33426392 425.91130371 145.20874023 425.05566406 C128.03772785 412.13660681 110.09035825 400.3455421 92.05810547 388.67724609 C26.09272697 345.94121082 -14.15047705 281.67064169 -30.66419983 204.73626709 C-31.53257505 200.50678983 -32.25546094 196.25271696 -33 192 C-33.25421471 190.58848412 -33.25421471 190.58848412 -33.51356506 189.14845276 C-36.55178203 171.98211475 -37.60505513 155.26840779 -37.46655273 137.84716797 C-37.43746595 133.8703448 -37.44603592 129.89485447 -37.45898438 125.91796875 C-37.4425239 104.72145775 -35.70532336 83.98117726 -31.1875 63.25 C-30.93033203 62.0439209 -30.67316406 60.8378418 -30.40820312 59.59521484 C-19.93745739 11.57882064 -19.93745739 11.57882064 -8 1.2734375 C-5.02963227 -0.61785133 -3.45469319 -0.69093864 0 0 Z " fill="#D01D23" transform="translate(313,343)"/>
<path d="M0 0 C0.94558777 -0.00067474 1.89117554 -0.00134949 2.86541748 -0.00204468 C45.32923911 0.04580616 88.53296573 6.95977754 127.5625 24.25 C129.20416458 24.95633958 130.84609665 25.66205776 132.48828125 26.3671875 C164.74203134 40.38672521 194.38873507 58.69361156 220.5625 82.25 C221.11099609 82.74209961 221.65949219 83.23419922 222.22460938 83.74121094 C232.87147107 93.3333718 243.39247059 103.21644348 252.5625 114.25 C252.99578613 114.75885742 253.42907227 115.26771484 253.87548828 115.79199219 C267.45375613 131.76165646 279.06936607 149.12334747 289.5625 167.25 C290.12582031 168.1265625 290.68914063 169.003125 291.26953125 169.90625 C293.146338 173.30831661 293.22939749 176.50511409 292.5625 180.25 C290.95326503 183.35352458 289.55902733 185.46701424 286.8125 187.625 C283.36056872 188.5838698 280.03562335 189.13373067 276.5625 188.25 C271.72219854 184.89514866 269.16181252 181.36646227 266.5 176.125 C256.85335477 158.13780735 244.40856913 141.47319856 230.59765625 126.46875 C228.7670558 124.47300901 227.00413517 122.43769389 225.25 120.375 C217.9306742 112.0076414 210.0230207 104.34938999 201.3125 97.4453125 C198.49792965 95.19845379 195.78760985 92.85419212 193.0625 90.5 C180.5946614 80.102049 166.71811242 71.17545738 152.5625 63.25 C151.7595752 62.79802246 150.95665039 62.34604492 150.12939453 61.88037109 C134.49306347 53.17090271 118.33962386 46.43742532 101.5625 40.25 C100.8106543 39.96543945 100.05880859 39.68087891 99.28417969 39.38769531 C68.93790955 27.93248076 35.18717455 24.01720021 2.9375 24.0625 C2.13925812 24.06310425 1.34101624 24.0637085 0.51858521 24.06433105 C-10.40932684 24.08676215 -21.17854813 24.28632658 -32.00585938 25.89941406 C-34.83776131 26.30770836 -37.6751962 26.64829085 -40.515625 26.9921875 C-95.7741798 34.02168821 -150.11177939 57.88029397 -192.4375 94.25 C-193.49361622 95.12381845 -194.55098291 95.99612703 -195.609375 96.8671875 C-208.21287655 107.33125595 -220.32300135 118.75163913 -230.421875 131.68359375 C-231.80295981 133.44206802 -233.2334117 135.16255393 -234.703125 136.84765625 C-245.49140874 149.21938163 -254.55065099 163.29292105 -262.51000977 177.63208008 C-264.64952217 181.37554852 -266.80396773 183.9061474 -270.4375 186.25 C-274.20587899 187.20028688 -277.88898681 187.12244714 -281.31640625 185.19140625 C-284.08514252 182.94305896 -286.16567351 181.01263961 -286.71972656 177.41992188 C-287.05703816 170.57036924 -284.84909882 166.40592758 -281.1875 160.75 C-280.64681885 159.88487793 -280.1061377 159.01975586 -279.54907227 158.12841797 C-270.98588445 144.57861491 -261.56666575 131.66627999 -251.4375 119.25 C-251.00066895 118.70875488 -250.56383789 118.16750977 -250.11376953 117.60986328 C-237.80816529 102.4460665 -223.88189946 88.21088349 -208.4375 76.25 C-206.55960881 74.64921883 -204.68478283 73.04483715 -202.8125 71.4375 C-166.8438872 41.49455687 -121.88940668 19.92087953 -76.4375 9.25 C-75.37136475 8.98993164 -75.37136475 8.98993164 -74.28369141 8.72460938 C-64.80086912 6.41288735 -55.25731768 4.63396799 -45.625 3.0625 C-44.61163574 2.89548584 -43.59827148 2.72847168 -42.55419922 2.55639648 C-28.39245123 0.32546764 -14.30443588 0.00921778 0 0 Z " fill="#0499E2" transform="translate(606.4375,141.75)"/>
<path d="M0 0 C23.64251401 5.71996307 43.10321754 22.69838513 59.875 39.5 C60.58867737 40.21349609 60.58867737 40.21349609 61.31677246 40.94140625 C69.154129 48.80694765 76.22777121 57.01643125 82.64453125 66.08886719 C83.96847747 67.95555505 85.32227746 69.79616781 86.6875 71.6328125 C94.88895783 82.74893989 102.13679443 94.47807856 108 107 C110.88134117 103.4369535 112.99828215 99.50498922 115.1875 95.5 C125.06067005 77.76260761 137.05143521 60.77073629 151 46 C152.06722946 44.75403551 153.12979557 43.50406044 154.1875 42.25 C169.60262993 24.66322359 189.61761938 5.87090076 213 0 C215.36328125 0.3828125 215.36328125 0.3828125 217 1 C216.00033203 2.25490234 216.00033203 2.25490234 214.98046875 3.53515625 C185.71789604 40.41114859 163.71542545 80.80804698 150 126 C149.72236816 126.91265625 149.44473633 127.8253125 149.15869141 128.765625 C137.21411153 168.57635905 129.63278733 209.88520286 122.3125 250.75 C119.9674403 263.83126414 116.88666664 276.71749796 113.79589844 289.63818359 C112.67463577 294.37431454 111.60918265 299.12190375 110.5625 303.875 C110.31681274 304.98983765 110.31681274 304.98983765 110.06616211 306.12719727 C109.70933499 307.75114916 109.35439303 309.37551518 109 311 C108.34 311 107.68 311 107 311 C105.13523581 302.50625695 103.27594661 294.01134416 101.42349243 285.51490784 C100.46167272 281.10591602 99.49157514 276.69885936 98.515625 272.29296875 C95.27633643 257.55437608 92.38437339 242.76057436 89.5625 227.9375 C89.36918091 226.92245392 89.17586182 225.90740784 88.97668457 224.86160278 C88.58752251 222.81809598 88.19839272 220.77458303 87.80929565 218.73106384 C78.83235325 170.40578521 78.83235325 170.40578521 66 123 C65.69368652 122.02417969 65.38737305 121.04835938 65.07177734 120.04296875 C59.98155661 103.90501218 54.17353634 88.32833194 47 73 C46.60200195 72.1435791 46.20400391 71.2871582 45.79394531 70.40478516 C34.31669529 45.94160483 19.320294 23.51326731 1.6953125 3.0546875 C0 1 0 1 0 0 Z " fill="#0283C1" transform="translate(504,288)"/>
<path d="M0 0 C10.05018248 8.61659789 15.85284233 18.78995033 18.1640625 31.85546875 C19.59328502 51.07999012 17.08233199 66.8474792 4.1640625 81.85546875 C-9.15238918 93.41975574 -24.3895592 97.95633012 -41.68603516 97.04638672 C-54.61368248 95.89837171 -67.19697139 89.64079482 -76.0234375 80.15234375 C-87.61172305 65.46718878 -89.79474064 50.28550994 -88.66796875 32.15234375 C-86.80755924 19.28268739 -78.9076364 6.75541203 -68.8359375 -1.14453125 C-48.14343394 -15.71515625 -20.2182374 -15.28899771 0 0 Z " fill="#0477AE" transform="translate(646.8359375,889.14453125)"/>
<path d="M0 0 C60.11428571 0 60.11428571 0 75.25 10.1875 C83.22170012 18.34037513 86.46281906 27.45844652 86.43164062 38.74633789 C86.10932088 50.1406009 80.96199876 58.16103434 73 66 C72.34 66.66 71.68 67.32 71 68 C71.50974365 69.00377686 72.0194873 70.00755371 72.54467773 71.04174805 C74.43866428 74.77532111 76.32463999 78.51289263 78.20825195 82.25170898 C79.02378735 83.86771627 79.84147597 85.48263881 80.66137695 87.09643555 C81.84116601 89.41952533 83.01309441 91.74643729 84.18359375 94.07421875 C84.55028671 94.79212082 84.91697968 95.51002289 85.29478455 96.24967957 C85.6350618 96.93000748 85.97533905 97.61033539 86.32592773 98.3112793 C86.77560158 99.20063423 86.77560158 99.20063423 87.23435974 100.10795593 C88 102 88 102 89 107 C79.1 107 69.2 107 59 107 C54.9200295 98.91163743 50.86023221 90.82080282 47 82.625 C46.69763428 81.98941162 46.39526855 81.35382324 46.08374023 80.69897461 C44 76.23800101 44 76.23800101 44 74 C38.72 74 33.44 74 28 74 C28 84.89 28 95.78 28 107 C18.76 107 9.52 107 0 107 C0 71.69 0 36.38 0 0 Z " fill="#0277AE" transform="translate(464,878)"/>
<path d="M0 0 C0.80759766 -0.01224609 1.61519531 -0.02449219 2.44726562 -0.03710938 C15.11390439 -0.06772977 27.35929461 4.76110729 36.625 13.5 C43.40400253 20.90902136 47.5625 30.07755334 47.5625 40.1875 C38.3225 40.1875 29.0825 40.1875 19.5625 40.1875 C18.5725 37.5475 17.5825 34.9075 16.5625 32.1875 C12.47826134 27.08220168 8.11634947 24.63295496 1.7265625 23.83203125 C-5.37680175 23.50101805 -10.05494955 24.46838019 -15.4375 29.1875 C-22.22392274 35.67230396 -23.52086423 43.03055202 -23.89306641 52.06689453 C-24.06534422 61.74284941 -23.20402002 70.42465276 -16.79296875 78.17578125 C-11.97738735 82.73047336 -6.66386135 84.19476087 -0.125 84.5625 C6.01579197 84.38435416 11.81961394 82.5805848 16.4921875 78.50390625 C19.35666243 75.31734921 20.49564635 73.45491458 21.5625 69.1875 C13.9725 69.1875 6.3825 69.1875 -1.4375 69.1875 C-1.4375 61.9275 -1.4375 54.6675 -1.4375 47.1875 C15.0625 47.1875 31.5625 47.1875 48.5625 47.1875 C48.5625 66.9875 48.5625 86.7875 48.5625 107.1875 C42.2925 107.1875 36.0225 107.1875 29.5625 107.1875 C28.5725 103.8875 27.5825 100.5875 26.5625 97.1875 C25.44875 98.095 24.335 99.0025 23.1875 99.9375 C12.84620811 107.69346892 1.19987155 109.11574345 -11.4375 108.1875 C-24.4905654 105.68251866 -36.86616031 99.34972116 -44.4375 88.1875 C-53.11107971 72.79634147 -56.44732791 54.7525639 -52.1171875 37.40234375 C-51.89289062 36.67144531 -51.66859375 35.94054687 -51.4375 35.1875 C-51.19257812 34.38441406 -50.94765625 33.58132813 -50.6953125 32.75390625 C-46.14450449 19.84652601 -37.45942307 10.70973894 -25.3125 4.62109375 C-16.86107096 0.91302926 -9.13730614 0.00725759 0 0 Z " fill="#0578AE" transform="translate(727.4375,877.8125)"/>
<path d="M0 0 C1.43352212 0.00015908 2.86704998 0.00585132 4.30053711 0.01586914 C5.43041298 0.01799156 5.43041298 0.01799156 6.58311462 0.02015686 C8.99807646 0.02577163 11.41294687 0.03832656 13.82788086 0.05102539 C15.46134307 0.05603849 17.09480672 0.06060173 18.72827148 0.06469727 C22.74067671 0.07574585 26.75301326 0.09302033 30.76538086 0.11352539 C36.40350918 14.80750057 41.60524498 29.65874507 46.85113525 44.49578857 C48.75922371 49.89186338 50.66951271 55.28715888 52.58041 60.68223953 C53.28052475 62.65972696 53.97978396 64.63751549 54.6789856 66.61532593 C56.91599018 72.93733083 59.17241709 79.25122933 61.4699707 85.55151367 C61.89146896 86.7096608 62.31296722 87.86780792 62.74723816 89.06105042 C63.53882339 91.23133402 64.33443414 93.40015506 65.13471985 95.56724548 C65.48294296 96.52232498 65.83116608 97.47740448 66.18994141 98.46142578 C66.49578659 99.29219131 66.80163177 100.12295685 67.116745 100.97889709 C67.76538086 103.11352539 67.76538086 103.11352539 67.76538086 106.11352539 C57.86538086 106.11352539 47.96538086 106.11352539 37.76538086 106.11352539 C36.77538086 103.18477539 35.78538086 100.25602539 34.76538086 97.23852539 C34.45213867 96.31700684 34.13889648 95.39548828 33.81616211 94.44604492 C33.5725293 93.7201416 33.32889648 92.99423828 33.07788086 92.24633789 C32.82651367 91.50270996 32.57514648 90.75908203 32.31616211 89.99291992 C31.76538086 88.11352539 31.76538086 88.11352539 31.76538086 86.11352539 C19.22538086 86.11352539 6.68538086 86.11352539 -6.23461914 86.11352539 C-6.89461914 89.08352539 -7.55461914 92.05352539 -8.23461914 95.11352539 C-9.55461914 98.74352539 -10.87461914 102.37352539 -12.23461914 106.11352539 C-21.80461914 106.11352539 -31.37461914 106.11352539 -41.23461914 106.11352539 C-37.85918956 94.86209347 -37.85918956 94.86209347 -36.06494141 89.81054688 C-35.6630661 88.6755072 -35.2611908 87.54046753 -34.84713745 86.37103271 C-34.41942047 85.17101624 -33.99170349 83.97099976 -33.55102539 82.73461914 C-33.09406287 81.44727045 -32.63729041 80.15985428 -32.18069458 78.87237549 C-30.97121457 75.46424053 -29.7585242 72.05725712 -28.54488754 68.65060043 C-27.79561544 66.54680332 -27.04716226 64.44271667 -26.29898071 62.33853149 C-20.54148259 46.14694838 -14.77561978 29.95819448 -8.92211914 13.80102539 C-8.67809357 13.1249826 -8.43406799 12.44893982 -8.18264771 11.75241089 C-7.51946356 9.91723725 -6.8518174 8.08367777 -6.18383789 6.25024414 C-5.82636475 5.26757568 -5.4688916 4.28490723 -5.10058594 3.27246094 C-3.76227277 -0.06407792 -3.82398286 0.13421028 0 0 Z " fill="#0377AE" transform="translate(388.234619140625,878.886474609375)"/>
<path d="M0 0 C1.43352212 0.00015908 2.86704998 0.00585132 4.30053711 0.01586914 C5.43041298 0.01799156 5.43041298 0.01799156 6.58311462 0.02015686 C8.99807646 0.02577163 11.41294687 0.03832656 13.82788086 0.05102539 C15.46134307 0.05603849 17.09480672 0.06060173 18.72827148 0.06469727 C22.74067671 0.07574585 26.75301326 0.09302033 30.76538086 0.11352539 C35.63564014 12.89680301 40.21966736 25.77433242 44.76538086 38.67602539 C46.26280044 42.9212692 47.76156674 47.1660351 49.26147461 51.41040039 C49.82408241 53.00245049 49.82408241 53.00245049 50.39805603 54.62666321 C52.90137366 61.69974894 55.43385639 68.76178401 57.98803711 75.81665039 C58.31661713 76.7254747 58.64519714 77.63429901 58.98373413 78.57066345 C60.53331961 82.85543456 62.08780136 87.13832224 63.65014648 91.41845703 C64.20047166 92.9378363 64.75061306 94.45728214 65.30053711 95.97680664 C65.67892479 97.00460236 65.67892479 97.00460236 66.06495667 98.05316162 C67.08786225 100.89237112 67.76538086 103.06812252 67.76538086 106.11352539 C57.86538086 106.11352539 47.96538086 106.11352539 37.76538086 106.11352539 C36.77538086 103.18477539 35.78538086 100.25602539 34.76538086 97.23852539 C34.45213867 96.31700684 34.13889648 95.39548828 33.81616211 94.44604492 C33.5725293 93.7201416 33.32889648 92.99423828 33.07788086 92.24633789 C32.82651367 91.50270996 32.57514648 90.75908203 32.31616211 89.99291992 C31.76538086 88.11352539 31.76538086 88.11352539 31.76538086 86.11352539 C19.22538086 86.11352539 6.68538086 86.11352539 -6.23461914 86.11352539 C-6.89461914 89.08352539 -7.55461914 92.05352539 -8.23461914 95.11352539 C-9.55461914 98.74352539 -10.87461914 102.37352539 -12.23461914 106.11352539 C-21.80461914 106.11352539 -31.37461914 106.11352539 -41.23461914 106.11352539 C-37.85918956 94.86209347 -37.85918956 94.86209347 -36.06494141 89.81054688 C-35.6630661 88.6755072 -35.2611908 87.54046753 -34.84713745 86.37103271 C-34.41942047 85.17101624 -33.99170349 83.97099976 -33.55102539 82.73461914 C-33.09406287 81.44727045 -32.63729041 80.15985428 -32.18069458 78.87237549 C-30.97121457 75.46424053 -29.7585242 72.05725712 -28.54488754 68.65060043 C-27.79561544 66.54680332 -27.04716226 64.44271667 -26.29898071 62.33853149 C-20.54148259 46.14694838 -14.77561978 29.95819448 -8.92211914 13.80102539 C-8.67809357 13.1249826 -8.43406799 12.44893982 -8.18264771 11.75241089 C-7.51946356 9.91723725 -6.8518174 8.08367777 -6.18383789 6.25024414 C-5.82636475 5.26757568 -5.4688916 4.28490723 -5.10058594 3.27246094 C-3.76227277 -0.06407792 -3.82398286 0.13421028 0 0 Z " fill="#0377AE" transform="translate(901.234619140625,878.886474609375)"/>
<path d="M0 0 C1.43352212 0.00015908 2.86704998 0.00585132 4.30053711 0.01586914 C5.43041298 0.01799156 5.43041298 0.01799156 6.58311462 0.02015686 C8.99807646 0.02577163 11.41294687 0.03832656 13.82788086 0.05102539 C15.46134307 0.05603849 17.09480672 0.06060173 18.72827148 0.06469727 C22.74067671 0.07574585 26.75301326 0.09302033 30.76538086 0.11352539 C35.63564014 12.89680301 40.21966736 25.77433242 44.76538086 38.67602539 C46.26280044 42.9212692 47.76156674 47.1660351 49.26147461 51.41040039 C49.82408241 53.00245049 49.82408241 53.00245049 50.39805603 54.62666321 C52.90137366 61.69974894 55.43385639 68.76178401 57.98803711 75.81665039 C58.31661713 76.7254747 58.64519714 77.63429901 58.98373413 78.57066345 C60.53331961 82.85543456 62.08780136 87.13832224 63.65014648 91.41845703 C64.20047166 92.9378363 64.75061306 94.45728214 65.30053711 95.97680664 C65.67892479 97.00460236 65.67892479 97.00460236 66.06495667 98.05316162 C67.08786225 100.89237112 67.76538086 103.06812252 67.76538086 106.11352539 C57.86538086 106.11352539 47.96538086 106.11352539 37.76538086 106.11352539 C36.77538086 103.18477539 35.78538086 100.25602539 34.76538086 97.23852539 C34.45213867 96.31700684 34.13889648 95.39548828 33.81616211 94.44604492 C33.5725293 93.7201416 33.32889648 92.99423828 33.07788086 92.24633789 C32.82651367 91.50270996 32.57514648 90.75908203 32.31616211 89.99291992 C31.76538086 88.11352539 31.76538086 88.11352539 31.76538086 86.11352539 C19.22538086 86.11352539 6.68538086 86.11352539 -6.23461914 86.11352539 C-6.89461914 89.08352539 -7.55461914 92.05352539 -8.23461914 95.11352539 C-9.55461914 98.74352539 -10.87461914 102.37352539 -12.23461914 106.11352539 C-21.80461914 106.11352539 -31.37461914 106.11352539 -41.23461914 106.11352539 C-37.85918956 94.86209347 -37.85918956 94.86209347 -36.06494141 89.81054688 C-35.6630661 88.6755072 -35.2611908 87.54046753 -34.84713745 86.37103271 C-34.41942047 85.17101624 -33.99170349 83.97099976 -33.55102539 82.73461914 C-33.09406287 81.44727045 -32.63729041 80.15985428 -32.18069458 78.87237549 C-30.97121457 75.46424053 -29.7585242 72.05725712 -28.54488754 68.65060043 C-27.79561544 66.54680332 -27.04716226 64.44271667 -26.29898071 62.33853149 C-20.54148259 46.14694838 -14.77561978 29.95819448 -8.92211914 13.80102539 C-8.67809357 13.1249826 -8.43406799 12.44893982 -8.18264771 11.75241089 C-7.51946356 9.91723725 -6.8518174 8.08367777 -6.18383789 6.25024414 C-5.82636475 5.26757568 -5.4688916 4.28490723 -5.10058594 3.27246094 C-3.76227277 -0.06407792 -3.82398286 0.13421028 0 0 Z " fill="#0377AE" transform="translate(277.234619140625,878.886474609375)"/>
<path d="M0 0 C9.22046472 7.05358079 15.8426265 16.02954395 17.625 27.75 C18.70630662 40.79658477 16.05126249 51.94067961 7.88671875 62.30859375 C-0.15972317 70.99430394 -10.18467019 75.72076677 -21.95703125 76.27197266 C-34.87938363 76.49430998 -43.74897624 72.99596916 -53.21875 64.03125 C-56.53843185 60.51912282 -59.43969898 57.04574046 -61.5625 52.6875 C-61.88605469 52.03652344 -62.20960938 51.38554687 -62.54296875 50.71484375 C-66.39328507 41.62231271 -65.91415241 28.27618189 -63.31640625 18.94921875 C-61.88755359 15.96372986 -60.3412459 13.40947363 -58.375 10.75 C-57.77171875 9.92371094 -57.1684375 9.09742188 -56.546875 8.24609375 C-42.44952978 -9.14636265 -18.59091059 -12.30943626 0 0 Z " fill="#0390D5" transform="translate(636.375,269.25)"/>
<path d="M0 0 C10.56 0 21.12 0 32 0 C38.72495485 12.30361058 45.43008498 24.61301759 52 37 C52.39268066 36.26475098 52.78536133 35.52950195 53.18994141 34.77197266 C54.67523273 31.9938712 56.16281273 29.21701025 57.65185547 26.44091797 C58.60165439 24.66856363 59.54890652 22.89484521 60.49609375 21.12109375 C70.47942073 2.52057927 70.47942073 2.52057927 73 0 C75.21855264 -0.08783542 77.43988496 -0.10694609 79.66015625 -0.09765625 C80.65685585 -0.09553383 80.65685585 -0.09553383 81.6736908 -0.09336853 C83.80333899 -0.08775518 85.93288339 -0.07520054 88.0625 -0.0625 C89.50325369 -0.05748671 90.94400903 -0.05292351 92.38476562 -0.04882812 C95.92321102 -0.03778145 99.46159539 -0.02050792 103 0 C101.74903473 4.08300128 100.24527562 7.60881686 98.0859375 11.2890625 C97.20276855 12.80560425 97.20276855 12.80560425 96.30175781 14.3527832 C95.66592773 15.43261475 95.03009766 16.51244629 94.375 17.625 C93.37036004 19.34760982 92.3657415 21.07023243 91.36218262 22.79347229 C90.66205351 23.99537084 89.96127835 25.19689325 89.2598877 26.39805603 C85.20783339 33.34166668 81.22948798 40.32713785 77.25 47.3125 C75.92252327 49.64229834 74.59429101 51.97166037 73.265625 54.30078125 C72.42692871 55.77285034 72.42692871 55.77285034 71.57128906 57.2746582 C70 60 70 60 68.32788086 62.26513672 C66.3755488 66.28610081 66.52068263 70.04035789 66.48828125 74.45703125 C66.46135445 75.81147591 66.46135445 75.81147591 66.43388367 77.19328308 C66.37986979 80.06630844 66.34591363 82.93916851 66.3125 85.8125 C66.27931904 87.76499691 66.24482866 89.71747204 66.20898438 91.66992188 C66.12169208 96.4466372 66.06154794 101.22260647 66 106 C56.76 106 47.52 106 38 106 C38.1134375 103.43734375 38.226875 100.8746875 38.34375 98.234375 C39.01432427 75.11605881 36.63232355 60.29376538 23.18652344 41.1875 C19.61389222 35.97934086 16.55661152 30.48709531 13.4375 25 C12.35588466 23.14406997 11.27137006 21.28982576 10.18359375 19.4375 C9.6716748 18.5609375 9.15975586 17.684375 8.63232422 16.78125 C7.4436549 14.7559253 6.24616504 12.73576967 5.04345703 10.71875 C4.40134277 9.6359375 3.75922852 8.553125 3.09765625 7.4375 C2.50605713 6.44621094 1.91445801 5.45492187 1.30493164 4.43359375 C0 2 0 2 0 0 Z " fill="#0477AD" transform="translate(773,879)"/>
<path d="M0 0 C2.53140306 2.53140306 3.54613365 5.12717988 5.0625 8.375 C10.09490301 18.75015091 17.149782 27.3149023 24.9453125 35.7578125 C26.71689757 37.69106313 28.39782341 39.66289334 30.0625 41.6875 C34.06379226 46.39038871 38.86138271 50.21889253 43.59375 54.16015625 C44.4703125 54.91167969 45.346875 55.66320312 46.25 56.4375 C47.05953125 57.11683594 47.8690625 57.79617188 48.703125 58.49609375 C54.56342754 64.88462084 56.99571142 73.85673763 59.9465332 81.87158203 C60.68499834 83.86823603 61.44081072 85.85776027 62.19726562 87.84765625 C64.82044312 94.87626266 66.85413941 101.44865246 67 109 C66.43716309 108.75354736 65.87432617 108.50709473 65.29443359 108.25317383 C48.08236395 100.73802013 31.57357949 94.22921533 13 91 C11.9987207 90.81977295 10.99744141 90.6395459 9.96582031 90.45385742 C-0.12264926 88.80791348 -10.04947598 88.64886531 -20.25 88.6875 C-21.12019775 88.68766113 -21.99039551 88.68782227 -22.88696289 88.68798828 C-37.77374339 88.70710366 -52.27695629 89.6856754 -67 92 C-64.02634945 88.79402424 -60.65562615 87.26219083 -56.6875 85.5625 C-55.61399292 85.10073364 -55.61399292 85.10073364 -54.51879883 84.62963867 C-47.82035972 81.81669451 -41.06499559 79.70534376 -34 78 C-33.29536621 77.82871582 -32.59073242 77.65743164 -31.86474609 77.48095703 C-14.42305061 73.31560723 3.13871704 71.9782955 21 71 C20.64284912 70.27635254 20.28569824 69.55270508 19.91772461 68.80712891 C7.90526912 44.38741513 7.90526912 44.38741513 3.8125 33.875 C3.54622803 33.19775879 3.27995605 32.52051758 3.00561523 31.82275391 C0.10853642 24.12603706 -1.33491022 16.72393886 -1.1875 8.5 C-1.1865332 7.42878906 -1.1865332 7.42878906 -1.18554688 6.3359375 C-1.14110439 1.14110439 -1.14110439 1.14110439 0 0 Z " fill="#E91E27" transform="translate(502,345)"/>
<path d="M0 0 C0.33 0 0.66 0 1 0 C2.32021518 23.519389 -8.09055012 49.63582518 -21 69 C-20.1656543 69.06993164 -19.33130859 69.13986328 -18.47167969 69.21191406 C12.58463579 71.86900185 41.29215373 77.32230682 70 90 C67.04562175 90.9022328 64.94215012 91.02206029 61.91015625 90.4765625 C61.12447266 90.3425 60.33878906 90.2084375 59.52929688 90.0703125 C58.71525391 89.92335938 57.90121094 89.77640625 57.0625 89.625 C15.70365268 82.23582628 -23.25456937 88.97394866 -61.78125 104.75 C-65 106 -65 106 -67 106 C-66.47169286 98.81155852 -64.3157366 92.60501314 -61.8125 85.875 C-61.19314575 84.20775879 -61.19314575 84.20775879 -60.5612793 82.50683594 C-59.74177654 80.31316405 -58.91810044 78.12104576 -58.08984375 75.93066406 C-57.19917947 73.53560715 -56.36351365 71.13676178 -55.5625 68.7109375 C-51.88476379 58.52820536 -45.13517927 52.7245545 -37 46 C-22.35317639 33.61609821 -10.49343931 18.89598191 -1.2421875 2.09765625 C-0.83226562 1.40542969 -0.42234375 0.71320313 0 0 Z " fill="#EA1C25" transform="translate(723,347)"/>
<path d="M0 0 C7.36703198 4.47113604 10.8214868 10.92437731 13.39453125 18.91796875 C15.02606262 27.50659616 14.6534945 37.18992514 10.80859375 45.09765625 C10.47988281 45.79375 10.15117188 46.48984375 9.8125 47.20703125 C6.3101204 53.65431827 0.74311965 57.78614762 -6.19140625 60.09765625 C-13.3379303 60.80191791 -19.3321003 60.5045495 -25.19140625 56.09765625 C-31.63623171 50.24712822 -36.18635817 43.0345914 -36.72265625 34.1953125 C-36.73941823 32.51697846 -36.72847684 30.83816456 -36.69140625 29.16015625 C-36.67932129 28.28206299 -36.66723633 27.40396973 -36.65478516 26.49926758 C-36.37698508 17.43709247 -34.22019089 10.25107889 -27.87109375 3.5703125 C-20.17076645 -3.18090469 -9.3563295 -4.18214312 0 0 Z " fill="#FAFDFE" transform="translate(623.19140625,902.90234375)"/>
<path d="M0 0 C5.81422097 2.6946678 9.12876091 7.02573616 12.21875 12.56640625 C14.69215595 20.37716188 13.95378783 27.93865825 10.40625 35.31640625 C7.51742431 39.86308036 3.84744102 43.23292704 -1.35546875 44.87109375 C-8.46260965 46.2850799 -16.51965692 46.5157315 -22.87890625 42.7109375 C-28.97184106 37.75609074 -31.92278506 31.7484649 -32.87890625 24.0078125 C-33.29458804 17.17570917 -31.60010077 11.87175182 -27.59375 6.31640625 C-19.72271547 -1.1031349 -10.50980063 -2.76990228 0 0 Z " fill="#060606" transform="translate(528.59375,1017.68359375)"/>
<path d="M0 0 C5.03611678 3.63095026 7.93017525 8.41912349 9.75 14.26171875 C10.62370039 21.37918046 10.11406429 27.41310473 5.75 33.26171875 C1.16028077 38.25151036 -3.21077067 40.95529446 -10.08203125 41.4765625 C-20.49857319 41.79766429 -20.49857319 41.79766429 -25.25 38.26171875 C-31.25917115 32.36737253 -34.5120974 27.56458183 -34.6875 18.94921875 C-34.56597314 11.27566541 -32.24183771 7.25355646 -26.9375 1.94921875 C-18.48660291 -3.35715849 -9.00113525 -5.17202328 0 0 Z " fill="#EA1D26" transform="translate(489.25,369.73828125)"/>
<path d="M0 0 C5.24194688 3.27757341 9.04545072 8.31715957 10.88671875 14.1796875 C11.72613177 21.80272903 11.69428089 28.91798619 6.88671875 35.1796875 C2.65794936 39.81232812 -2.07727581 41.82184567 -8.26171875 42.55078125 C-15.51738753 42.70011099 -20.70741676 42.30439592 -26.11328125 37.1796875 C-31.92256757 30.52594351 -32.64820919 24.51760827 -32.44921875 15.92578125 C-31.99470003 10.85736902 -30.76591112 7.71871883 -27.11328125 4.1796875 C-19.032928 -2.06136355 -9.6652104 -4.11702674 0 0 Z " fill="#EA1D25" transform="translate(759.11328125,368.8203125)"/>
<path d="M0 0 C7.76694918 1.55663282 14.22897765 4.45325971 19 11 C22.67205945 19.31984833 22.39090985 27.95190283 22.29296875 36.8515625 C22.28736165 38.3618426 22.28309683 39.87212822 22.28010559 41.38241577 C22.26874435 45.32472248 22.23935436 49.26668859 22.20599365 53.2088623 C22.17510274 57.24466344 22.16155994 61.28052053 22.14648438 65.31640625 C22.11447455 73.21109242 22.06338633 81.10550364 22 89 C18.94252171 85.2927291 16.87364679 81.93972826 15 77.5 C14.525625 76.3965625 14.05125 75.293125 13.5625 74.15625 C9.76174295 64.44805193 7.26723953 54.49501342 5.4375 44.25 C5.22843018 43.10128418 5.01936035 41.95256836 4.80395508 40.76904297 C-0.17338571 12.6275542 -0.17338571 12.6275542 0 0 Z " fill="#EA1D26" transform="translate(324,423)"/>
<path d="M0 0 C-1.6605037 28.01468068 -4.06124239 62.82046059 -20 87 C-20.99 87.495 -20.99 87.495 -22 88 C-22.06975246 79.28937809 -22.12293869 70.5788535 -22.15543652 61.86801243 C-22.17104005 57.82247051 -22.19218013 53.77712079 -22.22631836 49.73168945 C-22.25910281 45.82186451 -22.27689289 41.91222353 -22.28463173 38.00227165 C-22.29014121 36.51644943 -22.30089927 35.03063639 -22.31719017 33.54489326 C-22.50947656 15.26828231 -22.50947656 15.26828231 -16.6875 8.1875 C-6.62857143 0 -6.62857143 0 0 0 Z " fill="#E71F27" transform="translate(897,423)"/>
<path d="M0 0 C5.754375 -0.0928125 5.754375 -0.0928125 11.625 -0.1875 C13.42251709 -0.22846802 13.42251709 -0.22846802 15.25634766 -0.27026367 C22.70848408 -0.32845416 27.1230091 0.49826878 32.875 5.5 C35.7148828 9.1643649 35.58520793 12.88978861 35.34765625 17.37890625 C34.66674174 22.5125426 33.14223356 25.01352556 29.25 28.375 C23.55310473 31.36556107 16.17568551 30.21860834 10 30 C10 35.28 10 40.56 10 46 C6.7 46 3.4 46 0 46 C0 30.82 0 15.64 0 0 Z " fill="#030303" transform="translate(588,1017)"/>
<path d="M0 0 C1.65322266 0.01740234 1.65322266 0.01740234 3.33984375 0.03515625 C4.44457031 0.04417969 5.54929687 0.05320312 6.6875 0.0625 C7.54214844 0.07410156 8.39679687 0.08570313 9.27734375 0.09765625 C13.11608372 8.2312241 16.10334464 16.64412086 19.13330078 25.10253906 C20.03554371 27.6205409 20.9431651 30.13655644 21.8515625 32.65234375 C22.42609288 34.24858579 23.00032286 35.84493599 23.57421875 37.44140625 C23.84602966 38.19546753 24.11784058 38.94952881 24.39788818 39.72644043 C26.27734375 44.98144778 26.27734375 44.98144778 26.27734375 46.09765625 C22.64734375 46.09765625 19.01734375 46.09765625 15.27734375 46.09765625 C14.28734375 42.79765625 13.29734375 39.49765625 12.27734375 36.09765625 C6.33734375 36.42765625 0.39734375 36.75765625 -5.72265625 37.09765625 C-6.71265625 40.06765625 -7.70265625 43.03765625 -8.72265625 46.09765625 C-12.35265625 46.09765625 -15.98265625 46.09765625 -19.72265625 46.09765625 C-15.81447083 34.85062747 -11.85963883 23.62060646 -7.84765625 12.41015625 C-7.45457275 11.30551025 -7.06148926 10.20086426 -6.65649414 9.06274414 C-6.28903076 8.03914795 -5.92156738 7.01555176 -5.54296875 5.9609375 C-5.21570801 5.04610596 -4.88844727 4.13127441 -4.55126953 3.1887207 C-3.33509713 0.11962328 -3.33509713 0.11962328 0 0 Z " fill="#060606" transform="translate(694.72265625,1016.90234375)"/>
<path d="M0 0 C3.3 0 6.6 0 10 0 C10 5.94 10 11.88 10 18 C15.94 18 21.88 18 28 18 C28 12.06 28 6.12 28 0 C31.3 0 34.6 0 38 0 C38 15.18 38 30.36 38 46 C34.7 46 31.4 46 28 46 C28 39.73 28 33.46 28 27 C22.06 27 16.12 27 10 27 C10 33.27 10 39.54 10 46 C6.7 46 3.4 46 0 46 C0 30.82 0 15.64 0 0 Z " fill="#040404" transform="translate(452,1017)"/>
<path d="M0 0 C5.90314679 16.61889921 2.36656716 36.69188815 -3 53 C-3.33386719 54.05832031 -3.66773438 55.11664062 -4.01171875 56.20703125 C-5.9224686 61.58454243 -8.63188889 66.23094412 -13 70 C-13.66 70 -14.32 70 -15 70 C-20.61633757 51.42832912 -22.38791252 26.35918973 -14.125 8.1875 C-10.34288459 2.51432689 -6.89167606 0 0 0 Z " fill="#E7222A" transform="translate(867,492)"/>
<path d="M0 0 C5.28382406 0.41441757 8.31098922 1.11158323 12 5 C18.55126851 14.84965022 18.31848397 26.4042118 18.25 37.8125 C18.25773437 39.08931641 18.26546875 40.36613281 18.2734375 41.68164062 C18.25386183 51.2981901 17.47375065 60.67896315 15 70 C10.18084391 68.10676011 7.77680926 64.65924697 5.62109375 60.0546875 C0.40345038 46.03765217 -2.17916492 33.86562381 -2.1875 18.9375 C-2.19974609 17.77927734 -2.21199219 16.62105469 -2.22460938 15.42773438 C-2.22654297 14.30560547 -2.22847656 13.18347656 -2.23046875 12.02734375 C-2.23457764 11.01406006 -2.23868652 10.00077637 -2.24291992 8.95678711 C-1.97649335 5.71388033 -1.14094547 3.03677459 0 0 Z " fill="#E81F27" transform="translate(354,492)"/>
<path d="M0 0 C5.26831503 2.17933895 7.84527764 4.36070241 11 9 C11 10.65 11 12.3 11 14 C7.7 14 4.4 14 1 14 C0.67 12.35 0.34 10.7 0 9 C-1.97909398 8.97313447 -3.95828971 8.95366625 -5.9375 8.9375 C-7.59072266 8.92009766 -7.59072266 8.92009766 -9.27734375 8.90234375 C-11.91447634 8.68737429 -11.91447634 8.68737429 -13 10 C-13.04063832 11.66617115 -13.042721 13.33388095 -13 15 C-11.84242188 15.31453125 -10.68484375 15.6290625 -9.4921875 15.953125 C-7.95296799 16.3848573 -6.41391412 16.8171804 -4.875 17.25 C-4.11445312 17.45496094 -3.35390625 17.65992188 -2.5703125 17.87109375 C3.47596968 19.59115678 8.38870802 21.58306203 12 27 C12.74038686 31.51980351 12.3889188 35.14113766 10.5 39.3125 C5.49198477 44.69611638 0.83257868 46.24812525 -6.5 46.5625 C-13.72934362 46.33605884 -17.91752611 44.08247389 -22.9375 39.0625 C-24.30012563 36.4174032 -24.66593595 33.93976362 -25 31 C-21.62133448 30.71474681 -18.36743334 30.5437671 -15 31 C-12.9375 33.4375 -12.9375 33.4375 -12 36 C-10.97378893 37.24738223 -10.97378893 37.24738223 -8.78515625 37.1328125 C-7.43744141 37.12894531 -7.43744141 37.12894531 -6.0625 37.125 C-5.16660156 37.12757812 -4.27070312 37.13015625 -3.34765625 37.1328125 C-0.97844445 37.15421413 -0.97844445 37.15421413 1 36 C1.25030977 33.58380177 1.25030977 33.58380177 1 31 C-2.86980675 28.42012883 -6.90325318 27.68017751 -11.375 26.67578125 C-17.25764053 25.23441714 -20.64895277 23.02657084 -24 18 C-24.46112012 13.31194548 -24.48998541 10.97997082 -22.375 6.75 C-15.96140589 -0.67626687 -9.49232615 -1.1973275 0 0 Z " fill="#080808" transform="translate(570,1017)"/>
<path d="M0 0 C3.01125 -0.061875 6.0225 -0.12375 9.125 -0.1875 C10.06230957 -0.21481201 10.99961914 -0.24212402 11.96533203 -0.27026367 C17.07598263 -0.32088034 20.58790197 0.12906759 25 3 C28.3777799 6.65165394 29.83255122 9.25853268 30.3125 14.25 C29.86956692 19.565197 28.18603144 23.1219214 24.03125 26.69140625 C19.45720613 28.6660257 15.10568418 28.31532829 10.1875 28.1875 C6.825625 28.125625 3.46375 28.06375 0 28 C0 18.76 0 9.52 0 0 Z " fill="#FAFDFD" transform="translate(492,901)"/>
<path d="M0 0 C11.88 0 23.76 0 36 0 C36 2.64 36 5.28 36 8 C31.71 8 27.42 8 23 8 C23 20.54 23 33.08 23 46 C19.7 46 16.4 46 13 46 C13 33.46 13 20.92 13 8 C8.71 8 4.42 8 0 8 C0 5.36 0 2.72 0 0 Z " fill="#040404" transform="translate(645,1017)"/>
<path d="M0 0 C3.71015281 1.78636987 5.5278978 3.32332018 7.875 6.6875 C9.87084804 12.56416368 9.89083785 17.67330979 7.3125 23.375 C5.38172326 26.75217744 3.75453003 28.63471635 0 30 C-3.89857709 30.5546756 -7.04176364 30.34844958 -10.75 29 C-15.12791044 25.10852405 -17.19919288 20.33309763 -17.5625 14.5 C-17.33720606 9.50020766 -15.20545452 5.76528038 -12 2 C-7.94864559 -0.70090294 -4.75656623 -0.65047059 0 0 Z " fill="#F7F7F7" transform="translate(523,1025)"/>
<path d="M0 0 C3.3 0 6.6 0 10 0 C10 12.54 10 25.08 10 38 C15.94 38 21.88 38 28 38 C28 40.64 28 43.28 28 46 C18.76 46 9.52 46 0 46 C0 30.82 0 15.64 0 0 Z " fill="#020202" transform="translate(725,1017)"/>
<path d="M0 0 C3.3 0 6.6 0 10 0 C10 15.18 10 30.36 10 46 C6.7 46 3.4 46 0 46 C0 30.82 0 15.64 0 0 Z " fill="#040404" transform="translate(629,1017)"/>
<path d="M0 0 C0.66 0 1.32 0 2 0 C3.42976783 4.35813007 4.85377068 8.71808526 6.27246094 13.07983398 C6.75590503 14.56342333 7.24092125 16.04650134 7.72753906 17.52905273 C8.42666824 19.65996993 9.12012543 21.79266126 9.8125 23.92578125 C10.03123779 24.58838455 10.24997559 25.25098785 10.4753418 25.93367004 C11.38547586 28.75405555 12 31.01399134 12 34 C4.74 34 -2.52 34 -10 34 C-8.81506424 28.6677891 -7.718143 23.77685989 -6.0546875 18.65234375 C-5.70019531 17.55341797 -5.34570312 16.45449219 -4.98046875 15.32226562 C-4.61566406 14.20529297 -4.25085938 13.08832031 -3.875 11.9375 C-3.50246094 10.78572266 -3.12992188 9.63394531 -2.74609375 8.44726562 C-1.83437981 5.63030331 -0.9189396 2.81461174 0 0 Z " fill="#EDF9FC" transform="translate(913,909)"/>
<path d="M0 0 C0.66 0 1.32 0 2 0 C3.42976783 4.35813007 4.85377068 8.71808526 6.27246094 13.07983398 C6.75590503 14.56342333 7.24092125 16.04650134 7.72753906 17.52905273 C8.42666824 19.65996993 9.12012543 21.79266126 9.8125 23.92578125 C10.03123779 24.58838455 10.24997559 25.25098785 10.4753418 25.93367004 C11.38547586 28.75405555 12 31.01399134 12 34 C4.74 34 -2.52 34 -10 34 C-8.81506424 28.6677891 -7.718143 23.77685989 -6.0546875 18.65234375 C-5.70019531 17.55341797 -5.34570312 16.45449219 -4.98046875 15.32226562 C-4.61566406 14.20529297 -4.25085938 13.08832031 -3.875 11.9375 C-3.50246094 10.78572266 -3.12992187 9.63394531 -2.74609375 8.44726562 C-1.83437981 5.63030331 -0.9189396 2.81461174 0 0 Z " fill="#EDF9FC" transform="translate(289,909)"/>
<path d="M0 0 C0.66 0 1.32 0 2 0 C3.42992047 4.21560331 4.85391801 8.43314642 6.27246094 12.65258789 C6.75586246 14.08770643 7.24087817 15.52228229 7.72753906 16.95629883 C8.42678121 19.01763614 9.12019477 21.08085542 9.8125 23.14453125 C10.23144531 24.38565674 10.65039062 25.62678223 11.08203125 26.90551758 C12 30 12 30 12 33 C4.74 33 -2.52 33 -10 33 C-7.75 22.875 -7.75 22.875 -6.0546875 17.87109375 C-5.70019531 16.81728516 -5.34570312 15.76347656 -4.98046875 14.67773438 C-4.43326172 13.07381836 -4.43326172 13.07381836 -3.875 11.4375 C-3.50246094 10.33341797 -3.12992187 9.22933594 -2.74609375 8.09179688 C-1.83484757 5.39310627 -0.91940476 2.69591967 0 0 Z " fill="#EEF9FC" transform="translate(400,910)"/>
<path d="M0 0 C48 0 48 0 52 2 C35.5 2 19 2 2 2 C2 36.32 2 70.64 2 106 C10.25 106 18.5 106 27 106 C27 95.44 27 84.88 27 74 C27.33 74 27.66 74 28 74 C28 84.89 28 95.78 28 107 C18.76 107 9.52 107 0 107 C0 71.69 0 36.38 0 0 Z " fill="#398DB3" transform="translate(464,878)"/>
<path d="M0 0 C10.31991701 -0.36856846 10.31991701 -0.36856846 13.328125 1.26171875 C15.30971035 3.32201193 15.54271912 4.18053796 15.5 7 C15.5103125 7.680625 15.520625 8.36125 15.53125 9.0625 C15 11 15 11 13.328125 12.73828125 C9.09678784 15.0314388 4.71730274 14.1684751 0 14 C0 9.38 0 4.76 0 0 Z " fill="#FBFBFB" transform="translate(598,1025)"/>
<path d="M0 0 C0.33 0 0.66 0 1 0 C3.22420672 13.18817788 3.30746375 26.26074082 3.26074219 39.60693359 C3.25006188 43.22901307 3.26066819 46.85059218 3.2734375 50.47265625 C3.28042549 61.24188283 3.13080213 71.94505518 2.109375 82.671875 C2.03189026 83.510672 1.95440552 84.34946899 1.87457275 85.21368408 C1.6623456 87.1527837 1.34266978 89.07965494 1 91 C0.01 91.495 0.01 91.495 -1 92 C-1.02687279 90.18757948 -1.04633715 88.37504767 -1.0625 86.5625 C-1.07410156 85.55316406 -1.08570313 84.54382813 -1.09765625 83.50390625 C-1 81 -1 81 0 80 C0.09502416 77.50507612 0.12557566 75.03793986 0.11352539 72.54272461 C0.11374443 71.3720771 0.11374443 71.3720771 0.1139679 70.17778015 C0.11326858 67.5859402 0.10547536 64.99417122 0.09765625 62.40234375 C0.09579213 60.6101536 0.0943682 58.81796294 0.09336853 57.02577209 C0.08954284 52.29929203 0.07971212 47.57284248 0.06866455 42.84637451 C0.05845153 38.0271445 0.05387115 33.20790958 0.04882812 28.38867188 C0.03808989 18.92576781 0.02101286 9.46288644 0 0 Z " fill="#D83239" transform="translate(942,429)"/>
<path d="M0 0 C3.031875 -0.04125 6.06375 -0.0825 9.1875 -0.125 C10.13391357 -0.14320801 11.08032715 -0.16141602 12.05541992 -0.18017578 C16.48173171 -0.20930553 19.98240303 -0.11277356 24 2 C21.09330538 2.85305168 18.68951127 3.07289715 15.671875 2.87890625 C14.9509668 2.83580322 14.23005859 2.7927002 13.48730469 2.74829102 C12.58399414 2.68697998 11.68068359 2.62566895 10.75 2.5625 C7.8625 2.376875 4.975 2.19125 2 2 C2.33 9.92 2.66 17.84 3 26 C9.6 26 16.2 26 23 26 C21 28 21 28 18.84521484 28.22705078 C17.97590332 28.21657715 17.1065918 28.20610352 16.2109375 28.1953125 C15.36321777 28.19031738 14.51549805 28.18532227 13.64208984 28.18017578 C12.02488037 28.15286377 12.02488037 28.15286377 10.375 28.125 C5.239375 28.063125 5.239375 28.063125 0 28 C0 18.76 0 9.52 0 0 Z " fill="#CCEBF5" transform="translate(492,901)"/>
<path d="M0 0 C0.33 0 0.66 0 1 0 C1.63536176 27.45088644 1.63536176 27.45088644 -2 40 C-2.33862061 41.18190918 -2.33862061 41.18190918 -2.68408203 42.38769531 C-11.56349375 72.74142899 -11.56349375 72.74142899 -22 82 C-21.33402293 78.03309312 -19.37746017 75.09763423 -17.3125 71.6875 C-9.22007909 57.90202826 -2.99630292 42.07050001 -2.17578125 26.01171875 C-2 24 -2 24 -1 23 C-0.84259395 21.29436222 -0.74906608 19.58272756 -0.68359375 17.87109375 C-0.64169922 16.83662109 -0.59980469 15.80214844 -0.55664062 14.73632812 C-0.51732422 13.64771484 -0.47800781 12.55910156 -0.4375 11.4375 C-0.39431641 10.34501953 -0.35113281 9.25253906 -0.30664062 8.12695312 C-0.20017932 5.41810436 -0.09816484 2.70916008 0 0 Z " fill="#A22E32" transform="translate(559,736)"/>
<path d="M0 0 C3.16074764 1.58037382 3.54298175 4.76378948 4.625 7.9375 C4.85445312 8.58396484 5.08390625 9.23042969 5.3203125 9.89648438 C7 14.71058873 7 14.71058873 7 17 C3.04 17 -0.92 17 -5 17 C-3.7915371 11.05064416 -2.25422333 5.63555833 0 0 Z " fill="#ECECEC" transform="translate(697,1028)"/>
<path d="M0 0 C-3.48149992 1.16049997 -5.96623542 0.92536562 -9.625 0.75 C-16.05850748 0.71008165 -21.2047312 1.44819959 -26 6 C-29.16333493 10.87830922 -29.46339522 14.93958174 -29.375 20.5625 C-29.38660156 21.30435547 -29.39820313 22.04621094 -29.41015625 22.81054688 C-29.38526445 27.46946165 -28.66092407 30.0527176 -26 34 C-26.33 34.66 -26.66 35.32 -27 36 C-32.43094544 28.11636953 -32.83769535 21.34127718 -32 12 C-30.08400072 6.06398353 -26.1456567 2.93962787 -20.8671875 -0.08984375 C-14.27339486 -3.3039728 -6.66430424 -2.80602284 0 0 Z " fill="#D22E35" transform="translate(759,369)"/>
<path d="M0 0 C3.73910679 3.34820017 6.02240803 7.07937979 8.5 11.375 C12.85137291 19.83532735 12.85137291 19.83532735 19.25 26.4375 C23.23926053 27.25348511 26.00620887 26.9166078 30 26 C32.03688342 23.06741866 32.3481804 20.25638154 32.625 16.75 C32.69976563 15.85796875 32.77453125 14.9659375 32.8515625 14.046875 C32.90054688 13.37140625 32.94953125 12.6959375 33 12 C33.66 12.33 34.32 12.66 35 13 C35.41776675 19.05761794 35.12264203 22.19025097 31 27 C28.05172814 29.31649932 24.87971416 29.32738636 21.1953125 29.55859375 C17.02436961 28.49730401 14.13501788 25.63646058 11.74169922 22.18579102 C10.5565266 20.17269996 9.45264703 18.13504616 8.375 16.0625 C7.6351139 14.67715382 6.89295502 13.2930189 6.1484375 11.91015625 C5.79491211 11.24902832 5.44138672 10.58790039 5.07714844 9.90673828 C4.04174784 8.07390086 2.92172164 6.35286568 1.7265625 4.62109375 C0 2 0 2 0 0 Z " fill="#2791C5" transform="translate(864,301)"/>
<path d="M0 0 C0.66 0.33 1.32 0.66 2 1 C-7.9 10.9 -17.8 20.8 -28 31 C-28.66 30.67 -29.32 30.34 -30 30 C-25.21514231 24.39461399 -20.22546233 19.07043093 -15 13.875 C-13.99066406 12.85986328 -13.99066406 12.85986328 -12.9609375 11.82421875 C-8.79847609 7.66979298 -4.51221258 3.77192771 0 0 Z " fill="#DEF9FE" transform="translate(411,237)"/>
<path d="M0 0 C0.66 0 1.32 0 2 0 C2.67260351 1.76858691 3.33788395 3.53996016 4 5.3125 C4.37125 6.29863281 4.7425 7.28476562 5.125 8.30078125 C6 11 6 11 6 14 C14.91 14 23.82 14 33 14 C33.33 13.34 33.66 12.68 34 12 C34.495 13.98 34.495 13.98 35 16 C25.1 16 15.2 16 5 16 C3.35 10.72 1.7 5.44 0 0 Z " fill="#17739F" transform="translate(421,969)"/>
<path d="M0 0 C2.64069685 2.64069685 2.25935357 4.57658088 2.27783203 8.17211914 C2.26864746 9.02281982 2.25946289 9.87352051 2.25 10.75 C2.24468262 11.6258374 2.23936523 12.5016748 2.23388672 13.40405273 C2.1374615 20.31310262 1.71747023 27.17932265 1.125 34.0625 C1.04668945 35.00770508 0.96837891 35.95291016 0.88769531 36.92675781 C0.80358398 37.8081543 0.71947266 38.68955078 0.6328125 39.59765625 C0.55949707 40.37633057 0.48618164 41.15500488 0.41064453 41.95727539 C0 44 0 44 -2 47 C-2.02684679 44.35409986 -2.04676357 41.70846904 -2.0625 39.0625 C-2.07087891 38.30775391 -2.07925781 37.55300781 -2.08789062 36.77539062 C-2.09652441 34.85005687 -2.05224333 32.92464419 -2 31 C-1.67 30.67 -1.34 30.34 -1 30 C-0.84126045 27.78312006 -0.74866163 25.56144702 -0.68359375 23.33984375 C-0.66281265 22.67537735 -0.64203156 22.01091095 -0.62062073 21.3263092 C-0.55506342 19.19681457 -0.49621215 17.06719332 -0.4375 14.9375 C-0.39432061 13.49673153 -0.35070651 12.05597601 -0.30664062 10.61523438 C-0.19937607 7.0769596 -0.09812629 3.53854131 0 0 Z " fill="#D6373D" transform="translate(317,348)"/>
<path d="M0 0 C0.66 0.33 1.32 0.66 2 1 C1.66790527 1.52319824 1.33581055 2.04639648 0.99365234 2.58544922 C-0.54715476 5.01450517 -2.08610797 7.44473036 -3.625 9.875 C-4.17679932 10.74455322 -4.72859863 11.61410645 -5.29711914 12.51000977 C-8.09996233 16.93980258 -10.83548556 21.3856911 -13.4375 25.9375 C-15.55218342 29.43956243 -17.25911425 32.08605845 -21 34 C-24.07205917 34.46216819 -26.94937943 34.63411776 -30 34 C-31.7734375 32.47265625 -31.7734375 32.47265625 -33 31 C-31.68 31 -30.36 31 -29 31 C-29 31.66 -29 32.32 -29 33 C-22.43174053 32.20190619 -22.43174053 32.20190619 -17.5 28.0625 C-15.94789851 25.06586643 -15.94789851 25.06586643 -15 22 C-14.34 22 -13.68 22 -13 22 C-12.73316406 21.27039063 -12.46632813 20.54078125 -12.19140625 19.7890625 C-11.01557354 17.03645741 -9.64905123 14.8224762 -7.9375 12.375 C-6.16012171 9.82843844 -4.98934061 7.96802184 -4 5 C-3.34 5 -2.68 5 -2 5 C-1.34 3.35 -0.68 1.7 0 0 Z " fill="#218FC6" transform="translate(357,294)"/>
<path d="M0 0 C0.33 0 0.66 0 1 0 C1 22.44 1 44.88 1 68 C-0.32 66.35 -1.64 64.7 -3 63 C-2.01 62.505 -2.01 62.505 -1 62 C-0.67 41.54 -0.34 21.08 0 0 Z " fill="#C82F36" transform="translate(345,444)"/>
<path d="M0 0 C2.54663984 1.88229901 2.98291265 2.89721503 3.51171875 6.078125 C3.67285156 7.37234375 3.83398438 8.6665625 4 10 C5.39253401 19.29271905 7.01146175 28.41108594 9.4375 37.49609375 C10.17459594 40.77719441 10.22801116 43.65583632 10 47 C7.67585892 43.11846477 6.9603656 38.84448755 6.0546875 34.47265625 C5.7925798 33.23375893 5.7925798 33.23375893 5.525177 31.96983337 C5.15779279 30.22630722 4.79317896 28.48219531 4.43115234 26.73754883 C3.87738087 24.0739518 3.31238123 21.41291388 2.74609375 18.75195312 C2.38994821 17.05482939 2.03445758 15.35756805 1.6796875 13.66015625 C1.51097137 12.86730728 1.34225525 12.07445831 1.16842651 11.25758362 C0.38380237 7.44192909 -0.21011859 3.92042191 0 0 Z " fill="#1D79A3" transform="translate(597,529)"/>
<path d="M0 0 C1.60746056 0.42523816 3.21089836 0.86570126 4.8125 1.3125 C6.15248047 1.67794922 6.15248047 1.67794922 7.51953125 2.05078125 C10 3 10 3 13 6 C9.7 5.34 6.4 4.68 3 4 C3.14120016 6.58366245 3.28778333 9.16682885 3.4375 11.75 C3.47681641 12.47960937 3.51613281 13.20921875 3.55664062 13.9609375 C3.77520679 18.04076965 3.77520679 18.04076965 4.54711914 22.04003906 C5.19456116 24.84201453 4.56956154 27.2154769 4 30 C3.67 30 3.34 30 3 30 C2.49511485 25.93809157 1.9969481 21.87538649 1.5 17.8125 C1.35691406 16.66201172 1.21382813 15.51152344 1.06640625 14.32617188 C0.86337891 12.65844727 0.86337891 12.65844727 0.65625 10.95703125 C0.53056641 9.93585205 0.40488281 8.91467285 0.27539062 7.86254883 C0.02102932 5.21858939 -0.05115721 2.6537801 0 0 Z " fill="#D62F36" transform="translate(324,423)"/>
<path d="M0 0 C0.33 1.32 0.66 2.64 1 4 C9.25 4.33 17.5 4.66 26 5 C26 4.01 26 3.02 26 2 C26.66 2 27.32 2 28 2 C27.67 3.65 27.34 5.3 27 7 C17.43 7 7.86 7 -2 7 C-1.34 4.69 -0.68 2.38 0 0 Z " fill="#18749F" transform="translate(349,978)"/>
<path d="M0 0 C1.58522997 4.0267297 0.40430216 7.63018834 -0.58203125 11.66015625 C-0.75627121 12.40526962 -0.93051117 13.150383 -1.11003113 13.91807556 C-1.66894494 16.3016699 -2.24011653 18.68210778 -2.8125 21.0625 C-3.55222927 24.17743621 -4.28688193 27.29354785 -5.01953125 30.41015625 C-5.19590118 31.15721832 -5.37227112 31.9042804 -5.5539856 32.67398071 C-6.89709461 38.41700373 -8.04824193 44.17818631 -9 50 C-9.33 50 -9.66 50 -10 50 C-10.3334424 43.35020584 -9.09108814 37.1342616 -7.8125 30.625 C-7.59053955 29.47918457 -7.3685791 28.33336914 -7.13989258 27.15283203 C-5.29701934 17.91708978 -2.9281113 8.94631453 0 0 Z " fill="#2180AE" transform="translate(646,435)"/>
<path d="M0 0 C0.33 0.66 0.66 1.32 1 2 C-0.23046875 4.30078125 -0.23046875 4.30078125 -2 7 C-2.53238281 7.83917969 -3.06476563 8.67835938 -3.61328125 9.54296875 C-4.17402344 10.41566406 -4.73476563 11.28835938 -5.3125 12.1875 C-8.63747791 17.4003891 -11.91451324 22.64099668 -15 28 C-15.38285156 28.65613281 -15.76570313 29.31226563 -16.16015625 29.98828125 C-17.15985883 32.38291766 -17.20098997 34.16634093 -17.125 36.75 C-17.10695313 37.54921875 -17.08890625 38.3484375 -17.0703125 39.171875 C-17.04710937 39.77515625 -17.02390625 40.3784375 -17 41 C-19.30882049 38.69117951 -19.35512356 38.14211052 -19.47265625 34.99609375 C-19.33084219 29.03632823 -16.61147736 24.95031238 -13.4375 20.0625 C-12.8919043 19.18948242 -12.34630859 18.31646484 -11.78417969 17.41699219 C-8.04763127 11.48325585 -4.19918379 5.6186262 0 0 Z " fill="#2693C8" transform="translate(339,282)"/>
<path d="M0 0 C0.33 0.66 0.66 1.32 1 2 C9.91 2 18.82 2 28 2 C28 2.66 28 3.32 28 4 C18.43 4 8.86 4 -1 4 C-0.67 2.68 -0.34 1.36 0 0 Z " fill="#17739E" transform="translate(861,981)"/>
<path d="M0 0 C0.33 0.66 0.66 1.32 1 2 C9.91 2 18.82 2 28 2 C28 2.66 28 3.32 28 4 C18.43 4 8.86 4 -1 4 C-0.67 2.68 -0.34 1.36 0 0 Z " fill="#17739E" transform="translate(237,981)"/>
<path d="M0 0 C2.71472902 2.71472902 3.14258516 5.30652069 4 9 C3.67 9.66 3.34 10.32 3 11 C2.34 11 1.68 11 1 11 C1.33 15.95 1.66 20.9 2 26 C-0.91888583 20.16222834 -1.15983041 15.2052352 -1.125 8.75 C-1.12886719 8.0178125 -1.13273437 7.285625 -1.13671875 6.53125 C-1.12671034 1.12671034 -1.12671034 1.12671034 0 0 Z " fill="#D8393F" transform="translate(502,345)"/>
<path d="M0 0 C5.85659906 1.66153012 11.4590134 3.47041916 17 6 C13.98968256 6.93423645 13.13349732 7.04449911 10 6 C10.165 6.763125 10.33 7.52625 10.5 8.3125 C11 11 11 11 11 14 C9.16369327 11.85664848 7.33085819 9.71049702 5.5 7.5625 C4.71302734 6.64500977 4.71302734 6.64500977 3.91015625 5.70898438 C0 1.11328125 0 1.11328125 0 0 Z " fill="#1791CE" transform="translate(504,288)"/>
<path d="M0 0 C0.66 0.33 1.32 0.66 2 1 C0.68 1.99 -0.64 2.98 -2 4 C2.62 4 7.24 4 12 4 C12 4.33 12 4.66 12 5 C3.42 5.99 -5.16 6.98 -14 8 C-11.09519808 5.09519808 -9.11286484 3.9139468 -5.4375 2.25 C-4.46683594 1.80140625 -3.49617188 1.3528125 -2.49609375 0.890625 C-1.67238281 0.59671875 -0.84867187 0.3028125 0 0 Z " fill="#D33D44" transform="translate(449,429)"/>
<path d="M0 0 C0.33 0.99 0.66 1.98 1 3 C-4.61 8.61 -10.22 14.22 -16 20 C-16.99 19.67 -17.98 19.34 -19 19 C-12.73 12.73 -6.46 6.46 0 0 Z " fill="#BB2C31" transform="translate(708,663)"/>
<path d="M0 0 C0.33 0 0.66 0 1 0 C1.51583725 9.18954515 1.23692911 21.14460633 -4 29 C-4.16339417 24.09817487 -4.215298 21.36346576 -2 17 C-1.55188863 14.64435404 -1.55188863 14.64435404 -1.375 12.25 C-1.30023437 11.45078125 -1.22546875 10.6515625 -1.1484375 9.828125 C-1.09945312 9.22484375 -1.05046875 8.6215625 -1 8 C-1.99 8.33 -2.98 8.66 -4 9 C-2.94124926 5.59687262 -1.99097846 2.98646769 0 0 Z " fill="#D5363C" transform="translate(723,347)"/>
<path d="M0 0 C0 0.33 0 0.66 0 1 C-18.315 0.505 -18.315 0.505 -37 0 C-37 -0.33 -37 -0.66 -37 -1 C-9.79519411 -3.16094912 -9.79519411 -3.16094912 0 0 Z " fill="#D52A31" transform="translate(765,433)"/>
<path d="M0 0 C0.66 0.33 1.32 0.66 2 1 C1.2575 1.53625 0.515 2.0725 -0.25 2.625 C-3.769151 5.66426677 -6.64449857 8.47615729 -7.31933594 13.26708984 C-7.3927072 15.8144798 -7.3497071 18.32863409 -7.25 20.875 C-7.23195313 21.75414062 -7.21390625 22.63328125 -7.1953125 23.5390625 C-7.14848379 25.6931832 -7.07674994 27.84673774 -7 30 C-10.33116258 26.66883742 -10.23718945 23.33374617 -10.375 18.8125 C-10.32621576 12.55417946 -9.21597703 8.63757474 -5 4 C-2.1875 1.5 -2.1875 1.5 0 0 Z " fill="#D13138" transform="translate(465,370)"/>
<path d="M0 0 C5.94 2.31 11.88 4.62 18 7 C14.35637126 7.91090719 12.96378943 8.03442389 9.453125 7.44140625 C8.60878906 7.30283203 7.76445313 7.16425781 6.89453125 7.02148438 C5.58548828 6.79428711 5.58548828 6.79428711 4.25 6.5625 C3.36183594 6.41490234 2.47367188 6.26730469 1.55859375 6.11523438 C-0.62891336 5.75064986 -2.81489642 5.37867934 -5 5 C-5 4.67 -5 4.34 -5 4 C-3.35 3.67 -1.7 3.34 0 3 C0 2.01 0 1.02 0 0 Z " fill="#D33D43" transform="translate(775,430)"/>
<path d="M0 0 C-0.30770301 3.89622775 -0.62200308 7.79189623 -0.9375 11.6875 C-1.02451172 12.79029297 -1.11152344 13.89308594 -1.20117188 15.02929688 C-1.28818359 16.09599609 -1.37519531 17.16269531 -1.46484375 18.26171875 C-1.543396 19.24100342 -1.62194824 20.22028809 -1.70288086 21.22924805 C-1.98589406 23.86845661 -2.43525166 26.40794993 -3 29 C-3.33 29 -3.66 29 -4 29 C-4.02684312 26.18743719 -4.04676188 23.37512759 -4.0625 20.5625 C-4.07087891 19.76005859 -4.07925781 18.95761719 -4.08789062 18.13085938 C-4.0965143 16.08704779 -4.0522815 14.04316098 -4 12 C-3.67 11.67 -3.34 11.34 -3 11 C-2.76807135 9.48530552 -2.58784762 7.96245438 -2.4375 6.4375 C-2.35371094 5.61121094 -2.26992188 4.78492188 -2.18359375 3.93359375 C-2.12300781 3.29550781 -2.06242188 2.65742188 -2 2 C-2.99 1.67 -3.98 1.34 -5 1 C-3 0 -3 0 0 0 Z " fill="#D8393F" transform="translate(897,423)"/>
<path d="M0 0 C-3.12563635 1.12522909 -5.5121035 0.83022951 -8.73876953 0.29345703 C-13.93389459 -0.38075376 -19.20636113 -0.38841409 -24.4375 -0.5625 C-25.64599609 -0.60568359 -26.85449219 -0.64886719 -28.09960938 -0.69335938 C-31.06630606 -0.79889404 -34.03307902 -0.90100714 -37 -1 C-37 -1.33 -37 -1.66 -37 -2 C-10.77816142 -4.0060423 -10.77816142 -4.0060423 0 0 Z " fill="#D63B41" transform="translate(512,434)"/>
<path d="M0 0 C5.90196483 -0.24056922 11.23415469 0.66159076 17 1.875 C17.86367188 2.04902344 18.72734375 2.22304688 19.6171875 2.40234375 C24.48474609 3.40100699 29.2428131 4.56508765 34 6 C29.90352234 7.53617912 26.21176063 6.69045256 22 6 C21.67 5.67 21.34 5.34 21 5 C19.50503158 4.79300437 18.0033408 4.63320741 16.5 4.5 C12.11111111 4.11111111 12.11111111 4.11111111 11 3 C9.15400312 2.60545777 7.29774178 2.25823134 5.4375 1.9375 C3.91962891 1.67259766 3.91962891 1.67259766 2.37109375 1.40234375 C1.58863281 1.26957031 0.80617188 1.13679688 0 1 C0 0.67 0 0.34 0 0 Z " fill="#D42F36" transform="translate(726,419)"/>
<path d="M0 0 C0.33 0 0.66 0 1 0 C1.09765625 6.15234375 1.09765625 6.15234375 1 8 C0.67 8.33 0.34 8.66 0 9 C-0.15888092 11.28988781 -0.25138073 13.58443441 -0.31640625 15.87890625 C-0.33718735 16.5655687 -0.35796844 17.25223114 -0.37937927 17.95970154 C-0.44494143 20.16052935 -0.50379015 22.36147975 -0.5625 24.5625 C-0.60567892 26.05144514 -0.649293 27.54037773 -0.69335938 29.02929688 C-0.8006293 32.68606553 -0.90187772 36.34297318 -1 40 C-1.33 40 -1.66 40 -2 40 C-2.04955872 35.10702988 -2.0857946 30.21420695 -2.10986328 25.32104492 C-2.11990057 23.65760756 -2.13353331 21.99418775 -2.15087891 20.33081055 C-2.17522749 17.93533995 -2.18650588 15.54010332 -2.1953125 13.14453125 C-2.20563507 12.4047554 -2.21595764 11.66497955 -2.22659302 10.90278625 C-2.22747437 6.81668239 -1.82364095 3.6756777 0 0 Z " fill="#E71D26" transform="translate(852,503)"/>
<path d="M0 0 C-3.48149992 1.16049997 -5.96623542 0.92536562 -9.625 0.75 C-15.64103365 0.67534395 -19.29299184 1.50760433 -24.23046875 4.90625 C-26 6 -26 6 -29 6 C-19.77943743 -1.2757789 -11.60358353 -4.88571938 0 0 Z " fill="#D3333A" transform="translate(759,369)"/>
<path d="M0 0 C2.77579761 2.77579761 2.86061387 5.30306937 3.625 9.125 C3.88539063 10.40632812 4.14578125 11.68765625 4.4140625 13.0078125 C4.60742188 13.99523437 4.80078125 14.98265625 5 16 C5.66 13.69 6.32 11.38 7 9 C7.33 9 7.66 9 8 9 C7.85795259 10.58367747 7.71119847 12.16693318 7.5625 13.75 C7.48128906 14.63171875 7.40007813 15.5134375 7.31640625 16.421875 C7.03761535 18.69350452 6.61209423 20.79851823 6 23 C5.34 23 4.68 23 4 23 C3.3267344 20.10555905 2.66119596 17.20969987 2 14.3125 C1.80921875 13.49587891 1.6184375 12.67925781 1.421875 11.83789062 C0.51266084 7.82760674 -0.27000098 4.14282748 0 0 Z " fill="#2A7EA5" transform="translate(607,576)"/>
<path d="M0 0 C0.33 0 0.66 0 1 0 C1.38063221 2.3260857 1.71269945 4.66055264 2 7 C1.67 7.33 1.34 7.66 1 8 C0.90132331 9.36825469 0.86920932 10.74147445 0.8671875 12.11328125 C0.86589844 12.94923828 0.86460937 13.78519531 0.86328125 14.64648438 C0.86714844 15.52626953 0.87101562 16.40605469 0.875 17.3125 C0.87113281 18.18068359 0.86726563 19.04886719 0.86328125 19.94335938 C0.86457031 20.78318359 0.86585938 21.62300781 0.8671875 22.48828125 C0.86831543 23.25696533 0.86944336 24.02564941 0.87060547 24.81762695 C0.93182499 27.00903608 0.93182499 27.00903608 1.53564453 29.11010742 C2.15252721 31.6207745 1.61934037 33.52263853 1 36 C0.67 36 0.34 36 0 36 C-1.24075947 29.26444862 -1.14762266 22.58204269 -1.125 15.75 C-1.12886719 14.56664062 -1.13273437 13.38328125 -1.13671875 12.1640625 C-1.13542969 11.03226562 -1.13414062 9.90046875 -1.1328125 8.734375 C-1.13168457 7.70538086 -1.13055664 6.67638672 -1.12939453 5.61621094 C-1 3 -1 3 0 0 Z " fill="#D4363C" transform="translate(353,495)"/>
<path d="M0 0 C0.66 0.33 1.32 0.66 2 1 C0.74896484 1.76183594 0.74896484 1.76183594 -0.52734375 2.5390625 C-2.21537109 3.57160156 -2.21537109 3.57160156 -3.9375 4.625 C-4.52926025 4.98674316 -5.12102051 5.34848633 -5.73071289 5.72119141 C-9.1984293 7.85307293 -12.58882556 10.05845124 -15.9375 12.375 C-19.17123432 14.57059821 -22.17744435 16.01985753 -26 17 C-22.66247187 13.28224715 -18.95766294 10.97999552 -14.6875 8.5 C-14.04876953 8.12230469 -13.41003906 7.74460938 -12.75195312 7.35546875 C-11.4750864 6.6025443 -10.19499364 5.85506206 -8.91162109 5.11328125 C-7.60894777 4.35463625 -6.31521672 3.58047478 -5.02978516 2.79296875 C-3.38748299 1.80273839 -1.6967654 0.89370004 0 0 Z " fill="#299ED8" transform="translate(452,181)"/>
<path d="M0 0 C0.99 0 1.98 0 3 0 C0.65332077 11.23410268 0.65332077 11.23410268 -1 15 C-3.0703125 16.16015625 -3.0703125 16.16015625 -5 17 C-1.92482916 5.47835991 -1.92482916 5.47835991 0 0 Z " fill="#DF3037" transform="translate(887,504)"/>
<path d="M0 0 C-1.65 1.98 -3.3 3.96 -5 6 C-5.33 4.68 -5.66 3.36 -6 2 C-6.37125 2.515625 -6.7425 3.03125 -7.125 3.5625 C-9 5 -9 5 -12.1875 4.6875 C-13.115625 4.460625 -14.04375 4.23375 -15 4 C-12.60939149 2.40626099 -10.69171821 1.34702924 -8.0625 0.3125 C-7.39347656 0.04050781 -6.72445312 -0.23148437 -6.03515625 -0.51171875 C-3.67169662 -1.0787676 -2.2807201 -0.76024003 0 0 Z " fill="#2193CC" transform="translate(721,289)"/>
<path d="M0 0 C0 3 0 3 -1.79296875 5.0859375 C-2.58316406 5.84132812 -3.37335938 6.59671875 -4.1875 7.375 C-5.41919922 8.56029297 -5.41919922 8.56029297 -6.67578125 9.76953125 C-7.44277344 10.50558594 -8.20976562 11.24164063 -9 12 C-9.96160249 13.01775446 -10.92078308 14.03781783 -11.875 15.0625 C-14 17 -14 17 -17 17 C-11.39 11.39 -5.78 5.78 0 0 Z " fill="#2498D2" transform="translate(387,227)"/>
<path d="M0 0 C0.66 0 1.32 0 2 0 C1.125 6.875 1.125 6.875 0 8 C-0.23527773 10.34987262 -0.41386417 12.70556039 -0.5625 15.0625 C-0.64628906 16.35285156 -0.73007812 17.64320313 -0.81640625 18.97265625 C-0.87699219 19.97167969 -0.93757812 20.97070312 -1 22 C-1.33 22 -1.66 22 -2 22 C-2.05807043 18.89591193 -2.09361914 15.7919636 -2.125 12.6875 C-2.14175781 11.80642578 -2.15851562 10.92535156 -2.17578125 10.01757812 C-2.18222656 9.17001953 -2.18867187 8.32246094 -2.1953125 7.44921875 C-2.20578613 6.66893311 -2.21625977 5.88864746 -2.22705078 5.0847168 C-2 3 -2 3 0 0 Z " fill="#D73339" transform="translate(904,347)"/>
<path d="M0 0 C2.94289954 2.94289954 2.97327103 5.11473658 3.09765625 9.234375 C3.08605469 10.39453125 3.07445312 11.5546875 3.0625 12.75 C3.05347656 13.92046875 3.04445313 15.0909375 3.03515625 16.296875 C3.02355469 17.18890625 3.01195312 18.0809375 3 19 C2.67 19 2.34 19 2 19 C0.26044666 12.56986533 -0.24991456 6.65050424 0 0 Z " fill="#E61D26" transform="translate(903,366)"/>
<path d="M0 0 C0 4.07211906 -1.5535064 5.1414603 -4.25 8.125 C-5.43335938 9.45917969 -5.43335938 9.45917969 -6.640625 10.8203125 C-8.90987032 12.9167345 -9.99179674 13.65502256 -13 14 C-8.88380164 9.08064098 -4.59589638 4.47352044 0 0 Z " fill="#1C8EC5" transform="translate(669,319)"/>
<path d="M0 0 C0 6.93 0 13.86 0 21 C-0.33 21 -0.66 21 -1 21 C-1.33 15.39 -1.66 9.78 -2 4 C-3.32 3.67 -4.64 3.34 -6 3 C-2.25 0 -2.25 0 0 0 Z " fill="#C53338" transform="translate(845,553)"/>
<path d="M0 0 C0.66 0.66 1.32 1.32 2 2 C4.98844509 2.3902185 4.98844509 2.3902185 8.375 2.5 C12.81160116 2.70029802 14.93992136 2.96996068 19 5 C12.07 4.67 5.14 4.34 -2 4 C-1.34 2.68 -0.68 1.36 0 0 Z " fill="#FCD5D7" transform="translate(703,413)"/>
<path d="M0 0 C0.33 0 0.66 0 1 0 C1.05423638 1.91635217 1.09289963 3.83314925 1.125 5.75 C1.14820313 6.81734375 1.17140625 7.8846875 1.1953125 8.984375 C1.00487687 11.92470106 0.52670104 13.52361878 -1 16 C-1.33 16 -1.66 16 -2 16 C-1.85936865 13.70800823 -1.71234057 11.41640814 -1.5625 9.125 C-1.48128906 7.84882813 -1.40007813 6.57265625 -1.31640625 5.2578125 C-1 2 -1 2 0 0 Z " fill="#E81D25" transform="translate(905,424)"/>
<path d="M0 0 C0.33 0.66 0.66 1.32 1 2 C0.29296875 3.69921875 0.29296875 3.69921875 -0.8125 5.6875 C-2.78090086 9.41315838 -3.97972401 12.91889605 -5 17 C-5.66 16.67 -6.32 16.34 -7 16 C-5.26017005 10.18738629 -3.1889511 5.16830006 0 0 Z " fill="#257FA9" transform="translate(567,900)"/>
<path d="M0 0 C0.33 0 0.66 0 1 0 C0.88660796 2.64680904 0.75987127 5.29177518 0.625 7.9375 C0.5940625 8.69224609 0.563125 9.44699219 0.53125 10.22460938 C0.4273685 12.15507395 0.22104386 14.07942081 0 16 C-0.66 16.33 -1.32 16.66 -2 17 C-2.3690205 5.47835991 -2.3690205 5.47835991 0 0 Z " fill="#D62D34" transform="translate(943,504)"/>
<path d="M0 0 C2 1 2 1 2.62109375 2.703125 C3.06955765 5.42164845 3.09529082 7.99557077 3.0625 10.75 C3.05347656 11.73484375 3.04445313 12.7196875 3.03515625 13.734375 C3.02355469 14.48203125 3.01195312 15.2296875 3 16 C0.2066535 10.60634314 -0.11908784 6.07347984 0 0 Z " fill="#E81D25" transform="translate(277,499)"/>
<path d="M0 0 C0.33 0 0.66 0 1 0 C1.3118744 4.26488247 0.34425989 6.98566073 -1.5 10.8125 C-1.9640625 11.78832031 -2.428125 12.76414062 -2.90625 13.76953125 C-3.2671875 14.50558594 -3.628125 15.24164063 -4 16 C-4.66 16 -5.32 16 -6 16 C-4.25192871 10.53262809 -2.34205919 5.24175152 0 0 Z " fill="#D9373E" transform="translate(672,406)"/>
<path d="M0 0 C0.33 0 0.66 0 1 0 C1.20674944 5.78898419 0.59162079 10.42932723 -1 16 C-1.89893758 12.90765472 -2.16349234 10.09202643 -2.1875 6.875 C-2.20167969 6.00617187 -2.21585938 5.13734375 -2.23046875 4.2421875 C-2 2 -2 2 0 0 Z " fill="#DB343A" transform="translate(938,537)"/>
<path d="M0 0 C0 4.32249566 -2.14915074 5.88395546 -5 9 C-5.99 9.66 -6.98 10.32 -8 11 C-8.99 10.67 -9.98 10.34 -11 10 C-5.555 5.05 -5.555 5.05 0 0 Z " fill="#DA3037" transform="translate(694,386)"/>
<path d="M0 0 C0.33 1.32 0.66 2.64 1 4 C0.01 4.33 -0.98 4.66 -2 5 C-2.71247732 6.6476038 -3.37400383 8.31763529 -4 10 C-4.95824253 11.36365283 -5.94721175 12.70794169 -7 14 C-7.66 13.67 -8.32 13.34 -9 13 C-6.03 8.71 -3.06 4.42 0 0 Z " fill="#D8363D" transform="translate(718,356)"/>
<path d="M0 0 C2.81631641 2.49493496 4.40955981 5.26562818 6.1875 8.5625 C6.71730469 9.53316406 7.24710938 10.50382813 7.79296875 11.50390625 C9 14 9 14 9 16 C6 15 6 15 5.15625 13.328125 C4.9396875 12.64234375 4.723125 11.9565625 4.5 11.25 C3.35252188 7.86220745 1.88425554 5.05069944 0 2 C0 1.34 0 0.68 0 0 Z " fill="#B4383C" transform="translate(545,700)"/>
<path d="M0 0 C2.00293347 3.00440021 2.49271626 4.70993945 3.125 8.1875 C3.29257812 9.08855469 3.46015625 9.98960937 3.6328125 10.91796875 C3.75398438 11.60503906 3.87515625 12.29210937 4 13 C2.02 12.34 0.04 11.68 -2 11 C-1.01 10.67 -0.02 10.34 1 10 C0.67 6.7 0.34 3.4 0 0 Z " fill="#F8CFD0" transform="translate(422,627)"/>
<path d="M0 0 C1.37805701 3.82793613 0.58481668 7.05248739 0 11 C0.33 11.66 0.66 12.32 1 13 C-0.32 13.33 -1.64 13.66 -3 14 C-2.48594831 9.03083364 -1.76615118 4.70973649 0 0 Z " fill="#D43D43" transform="translate(659,439)"/>
<path d="M0 0 C1.12764117 3.33720834 0.87990246 5.31283494 -0.25 8.625 C-0.50265625 9.40101563 -0.7553125 10.17703125 -1.015625 10.9765625 C-2 13 -2 13 -5 15 C-1.92482916 4.44191344 -1.92482916 4.44191344 0 0 Z " fill="#D7363D" transform="translate(665,423)"/>
<path d="M0 0 C0.33 0 0.66 0 1 0 C1 5.28 1 10.56 1 16 C0.01 16 -0.98 16 -2 16 C-1.34 10.72 -0.68 5.44 0 0 Z " fill="#D84045" transform="translate(280,416)"/>
<path d="M0 0 C0 3.66184524 -0.919642 5.02806 -3 8 C-5.1875 9.8125 -5.1875 9.8125 -7 11 C-7.66 10.67 -8.32 10.34 -9 10 C-6.03 6.7 -3.06 3.4 0 0 Z " fill="#D9363D" transform="translate(708,370)"/>
<path d="M0 0 C-0.33 4.95 -0.66 9.9 -1 15 C-1.33 15 -1.66 15 -2 15 C-2 10.71 -2 6.42 -2 2 C-2.99 1.67 -3.98 1.34 -5 1 C-3 0 -3 0 0 0 Z " fill="#D5484E" transform="translate(897,423)"/>
<path d="M0 0 C0.66 0.33 1.32 0.66 2 1 C1.2575 1.53625 0.515 2.0725 -0.25 2.625 C-3.17674961 5.15264739 -4.98621339 7.71827368 -7 11 C-7.66 10.67 -8.32 10.34 -9 10 C-6.43571997 5.82117329 -3.98069267 2.87494471 0 0 Z " fill="#D53A40" transform="translate(465,370)"/>
<path d="M0 0 C1.98 0.99 1.98 0.99 4 2 C4 2.66 4 3.32 4 4 C4.598125 3.835 5.19625 3.67 5.8125 3.5 C8 3 8 3 11 3 C9.68 4.32 8.36 5.64 7 7 C3.17053157 5.54744301 1.87949705 3.57104439 0 0 Z " fill="#9D3437" transform="translate(521,821)"/>
<path d="M0 0 C0.33 0 0.66 0 1 0 C1.05447047 1.41623216 1.09300508 2.83308191 1.125 4.25 C1.14820313 5.03890625 1.17140625 5.8278125 1.1953125 6.640625 C0.9828378 9.20731941 0.28654105 10.7916067 -1 13 C-1.66 13 -2.32 13 -3 13 C-2.01 8.71 -1.02 4.42 0 0 Z " fill="#FCD2D5" transform="translate(866,534)"/>
<path d="M0 0 C1.82355623 2.73533435 2.51551683 4.32643913 3.25 7.4375 C3.53617187 8.58025391 3.53617187 8.58025391 3.828125 9.74609375 C4 12 4 12 2 16 C1.34 10.72 0.68 5.44 0 0 Z " fill="#D33138" transform="translate(279,523)"/>
<path d="M0 0 C0 0.66 0 1.32 0 2 C-1.43294498 2.84114171 -2.87154405 3.67265687 -4.3125 4.5 C-5.51326172 5.19609375 -5.51326172 5.19609375 -6.73828125 5.90625 C-9 7 -9 7 -12 7 C-10.70982586 6.01886757 -9.41780894 5.04015801 -8.125 4.0625 C-7.04605469 3.24458984 -7.04605469 3.24458984 -5.9453125 2.41015625 C-2.62049861 0 -2.62049861 0 0 0 Z " fill="#D73C42" transform="translate(742,368)"/>
<path d="M0 0 C0.33 0 0.66 0 1 0 C1 4.62 1 9.24 1 14 C0.01 14.33 -0.98 14.66 -2 15 C-1.34 10.05 -0.68 5.1 0 0 Z " fill="#FED0D3" transform="translate(770,386)"/>
<path d="M0 0 C0 4.24645065 -1.81750806 6.38524772 -4 10 C-4.99 9.67 -5.98 9.34 -7 9 C-4.69 6.03 -2.38 3.06 0 0 Z " fill="#B93A3E" transform="translate(682,690)"/>
<path d="M0 0 C0.33 0.99 0.66 1.98 1 3 C-1.3125 5.0625 -1.3125 5.0625 -4 7 C-4.99 6.67 -5.98 6.34 -7 6 C-4.69 4.02 -2.38 2.04 0 0 Z " fill="#DA2D35" transform="translate(682,397)"/>
<path d="M0 0 C0.33 0 0.66 0 1 0 C1.28571429 7.42857143 1.28571429 7.42857143 -1 11 C-1.66 11 -2.32 11 -3 11 C-2.01 7.37 -1.02 3.74 0 0 Z " fill="#FBD7D9" transform="translate(802,614)"/>
<path d="M0 0 C0.33 0 0.66 0 1 0 C1 2.64 1 5.28 1 8 C0.01 8.33 -0.98 8.66 -2 9 C-1.125 2.25 -1.125 2.25 0 0 Z " fill="#DC383F" transform="translate(852,503)"/>
<path d="M0 0 C3.3 0.99 6.6 1.98 10 3 C7 4 7 4 5 4 C4.67 4.66 4.34 5.32 4 6 C2.68 4.02 1.36 2.04 0 0 Z " fill="#2C91C2" transform="translate(504,288)"/>
<path d="M0 0 C1.10191901 4.40767604 0.58706842 5.8922935 -1 10 C-1.66 10 -2.32 10 -3 10 C-2.01 6.7 -1.02 3.4 0 0 Z " fill="#2A81AA" transform="translate(867,964)"/>
<path d="M0 0 C1.10191901 4.40767604 0.58706842 5.8922935 -1 10 C-1.66 10 -2.32 10 -3 10 C-2.01 6.7 -1.02 3.4 0 0 Z " fill="#2A81AA" transform="translate(243,964)"/>
<path d="M0 0 C1.10191901 4.40767604 0.58706842 5.8922935 -1 10 C-1.66 10 -2.32 10 -3 10 C-2.01 6.7 -1.02 3.4 0 0 Z " fill="#2881AA" transform="translate(379,894)"/>
<path d="M0 0 C0.33 0 0.66 0 1 0 C0.67 2.64 0.34 5.28 0 8 C0.66 8.33 1.32 8.66 2 9 C0.68 9.33 -0.64 9.66 -2 10 C-1.34 6.7 -0.68 3.4 0 0 Z " fill="#FACED0" transform="translate(797,630)"/>
<path d="M0 0 C1.04187157 3.12561472 1.23843794 4.04680182 0 7 C-1.98 7.99 -1.98 7.99 -4 9 C-2.68 6.03 -1.36 3.06 0 0 Z " fill="#D63A40" transform="translate(795,549)"/>
<path d="M0 0 C0.33 0 0.66 0 1 0 C1 3.3 1 6.6 1 10 C-0.32 8.35 -1.64 6.7 -3 5 C-2.34 4.67 -1.68 4.34 -1 4 C-0.34786708 1.97536745 -0.34786708 1.97536745 0 0 Z " fill="#C83D42" transform="translate(345,502)"/>
<path d="M0 0 C0.33 0 0.66 0 1 0 C1.08096803 1.45742463 1.13917774 2.91612807 1.1875 4.375 C1.22230469 5.18710937 1.25710938 5.99921875 1.29296875 6.8359375 C1.19628906 7.55007813 1.09960938 8.26421875 1 9 C0.01 9.66 -0.98 10.32 -2 11 C-1 3.57142857 -1 3.57142857 0 0 Z " fill="#DA4248" transform="translate(892,486)"/>
<path d="M0 0 C2 2 2 2 2.125 5.125 C2.08375 6.07375 2.0425 7.0225 2 8 C-0.475 7.01 -0.475 7.01 -3 6 C-2.01 5.67 -1.02 5.34 0 5 C0 3.35 0 1.7 0 0 Z " fill="#D03A40" transform="translate(567,446)"/>
<path d="M0 0 C-7.21225383 3.25601751 -7.21225383 3.25601751 -10.5 2.1875 C-10.995 1.795625 -11.49 1.40375 -12 1 C-3.96428571 -1.27678571 -3.96428571 -1.27678571 0 0 Z " fill="#D4363D" transform="translate(472,424)"/>
</svg>
